<svg width="95" height="28" viewBox="0 0 95 28" fill="none" xmlns="http://www.w3.org/2000/svg">
<g clip-path="url(#clip0_373_6062)">
<path d="M55.0388 4.12001C60.4602 6.60193 65.6542 8.77137 71.2827 8.16825C77.4746 7.50465 82.5656 2.85329 88.9003 5.69081C96.0045 8.87273 95.8902 19.2327 90.1245 23.6735C85.9788 26.8666 81.0581 28.1182 74.6573 27.8618C67.0838 27.5582 59.2097 26.0227 46.8891 25.9936C36.1231 25.9678 28.6942 28.1104 19.5331 27.9945C12.4598 27.9049 6.07295 25.7903 2.44639 21.7258C-2.68265 15.9797 0.873353 6.55489 7.38223 5.44945C14.3918 4.25889 16.5937 8.39001 22.7817 7.72697C28.4998 7.11433 31.8156 2.27089 37.4066 0.619448C43.4927 -1.17871 48.7276 1.23209 55.0382 4.12057L55.0388 4.12001Z" fill="#6700E6"/>
<path d="M33.4578 15.5625C33.5424 16.0671 33.5709 16.6231 33.5172 17.2207H27.3594C27.463 19.8191 29.1436 20.4569 30.3033 20.4569C31.1669 20.4569 31.985 20.1159 32.5501 19.4831L33.3044 20.2217C32.5618 21.1138 31.4368 21.5663 30.1986 21.5663C27.8416 21.5663 26.0322 20.0201 26.0322 17.1277C26.0322 13.9592 27.9491 12.478 30.0228 12.478C31.4435 12.478 33.0641 13.2329 33.4578 15.5619M32.1737 16.1712C32.3361 14.7656 31.3326 13.5291 29.9259 13.5291C28.9946 13.5291 27.673 14.125 27.4048 16.1712H32.1737Z" fill="white"/>
<path d="M39.5469 8.74512V20.2699H42.1044V21.3681H35.5967V20.2699H38.1693V9.84552H35.7109V8.74512H39.5469Z" fill="white"/>
<path d="M47.7735 12.6815V20.2695H49.8074V21.3677H44.1855V20.2695H46.397V13.7959H44.2992V12.6815H47.7729M48.1016 9.88602C48.1016 10.4231 47.6626 10.8599 47.1188 10.8599C46.5751 10.8599 46.1338 10.4231 46.1338 9.88826C46.1338 9.35346 46.5745 8.91162 47.1188 8.91162C47.6631 8.91162 48.1016 9.34842 48.1016 9.88658V9.88602Z" fill="white"/>
<path d="M68.8489 15.5625C68.934 16.0671 68.9609 16.6231 68.9093 17.2207H62.751C62.8558 19.8191 64.5363 20.4569 65.6961 20.4569C66.5585 20.4569 67.3772 20.1159 67.9417 19.4831L68.6954 20.2217C67.9523 21.1138 66.8284 21.5663 65.5897 21.5663C63.2337 21.5663 61.4238 20.0201 61.4238 17.1277C61.4238 13.9592 63.3413 12.478 65.4133 12.478C66.8362 12.478 68.4546 13.2329 68.8483 15.5619M67.5642 16.1712C67.7266 14.7656 66.7242 13.5291 65.3169 13.5291C64.3873 13.5291 63.0663 14.125 62.7941 16.1712H67.5642Z" fill="white"/>
<path d="M58.6914 15.0529C58.6914 15.0529 58.5385 14.8418 58.45 14.7533C58.3621 14.6648 57.5305 13.6479 56.1596 13.6479C54.5558 13.6479 53.2767 14.8905 53.2767 16.8796C53.2767 18.8687 54.5731 20.3443 56.2744 20.3443C57.1497 20.3443 57.9964 19.9568 58.5861 19.2887L59.3785 20.2116C58.5458 21.1087 57.3771 21.5976 56.1591 21.5976C53.6895 21.5976 51.8594 19.6533 51.8594 17.0207C51.8594 14.3882 53.6805 12.478 56.2459 12.478C57.6503 12.478 58.8224 13.0867 59.5101 14.0942L58.6903 15.0523" fill="white"/>
<path d="M21.7329 13.6977L18.7268 14.6749V11.5137H17.6286V14.6749L14.622 13.6977L14.2832 14.7415L17.2893 15.7187L15.4312 18.2768L16.3194 18.9219L18.1774 16.3638L20.0366 18.9219L20.9242 18.2768L19.0656 15.7187L22.0722 14.7415L21.7329 13.6977Z" fill="white"/>
<path d="M80.7148 14.7415L80.3755 13.6977L77.3683 14.6749V11.5137H76.2712V14.6749L73.264 13.6977L72.9258 14.7415L75.9319 15.7187L74.0743 18.2768L74.9619 18.9219L76.8206 16.3638L78.6781 18.9219L79.5668 18.2768L77.7082 15.7187L80.7148 14.7415Z" fill="white"/>
<path d="M12.2854 8.56152L13.3942 9.1232L7.54722 21.7176L6.4541 21.1716L12.2854 8.56152Z" fill="white"/>
<path d="M87.427 8.56152L88.5352 9.1232L82.6871 21.7176L81.5957 21.1716L87.427 8.56152Z" fill="white"/>
</g>
<defs>
<clipPath id="clip0_373_6062">
<rect width="94.3477" height="28" fill="white"/>
</clipPath>
</defs>
</svg>
