<svg viewBox="0 0 55 20" ><path d="M0 0h11.244L13 3.324H3.991v4.622h7.011l1 1.676-1 1.675h-7.01v5.352H13L11.54 20H0V0Z" fill="#699AFE"/><path d="M23.526 20c-1.184 0-2.238-.168-3.162-.504a6.033 6.033 0 0 1-2.378-1.644c-.645-.743-1.141-1.698-1.49-2.865-.33-1.167-.496-2.564-.496-4.191V0l3.868 1.454v9.687c0 1.025.078 1.892.235 2.6.174.689.418 1.246.731 1.67.314.425.697.734 1.15.929.453.176.967.265 1.542.265.575 0 1.089-.089 1.542-.265a2.94 2.94 0 0 0 1.202-.929c.331-.424.584-.981.758-1.67.174-.708.261-1.575.261-2.6V1.454L31 0v10.796c0 1.627-.166 3.024-.497 4.19-.33 1.168-.818 2.123-1.463 2.866a5.826 5.826 0 0 1-2.352 1.644c-.923.336-1.977.504-3.162.504ZM33 0l4 1.001v17.998L33 20V0Zm6 1.001L41.68 0h3.028c1.594 0 3.018.198 4.274.595 1.275.396 2.353 1.009 3.234 1.837.9.811 1.584 1.838 2.053 3.082.487 1.243.731 2.711.731 4.405 0 1.676-.244 3.144-.731 4.405-.469 1.262-1.144 2.316-2.025 3.162-.862.83-1.912 1.46-3.15 1.892-1.236.415-2.624.622-4.16.622h-2.967L39 18.999V1.001Zm5.455 15.783c.975 0 1.847-.126 2.615-.379a5.16 5.16 0 0 0 1.997-1.216c.543-.558.956-1.27 1.237-2.135.3-.865.45-1.91.45-3.135 0-1.225-.15-2.261-.45-3.108-.281-.865-.694-1.559-1.237-2.081a4.664 4.664 0 0 0-1.997-1.162c-.768-.253-1.64-.379-2.615-.379h-1.293v13.595h1.293Z" fill="#373E6A"/></svg>