<svg xmlns="http://www.w3.org/2000/svg" width="113" height="167" viewBox="0 0 113 167" fill="none"><path opacity=".2" d="M90.9 48.587c-.029-2.455-.169-4.997-1.288-7.182-.227-.444-.53-.898-1.003-1.056-.934-.31-1.758.685-2.18 1.574-2.753 5.809-2.147 12.586-3.344 18.902-1.71 9.013-7.03 16.84-11.446 24.882-4.415 8.042-8.096 17.251-6.118 26.209.262 1.184.623 2.371.561 3.582-.05.997-.386 1.955-.717 2.896l-4.001 11.351-.082-35.195c-.004-1.938.006-3.947.816-5.707.668-1.448 1.823-2.605 2.725-3.921 3.068-4.478 2.965-10.327 2.748-15.75l-1.894-47.017c-.057-1.418-.127-2.887-.773-4.15-.646-1.262-2.042-2.26-3.432-1.979-1.223.248-2.065 1.364-2.645 2.47-2.863 5.452-2.087 11.987-2.138 18.145-.13 15.73-6.04 32.097-.292 46.742.868 2.212 1.994 4.34 2.526 6.656.455 1.981.459 4.034.462 6.067l.029 25.484A343.587 343.587 0 0 0 26.74 35.067c-.378-.699-1.06-1.514-1.795-1.206-.448.188-.63.718-.727 1.194-.49 2.419-.042 4.928.604 7.31 2.766 10.197 9.08 19.1 12.355 29.145 1.693 5.193 2.552 10.628 4.223 15.828 1.67 5.2 4.302 10.324 8.693 13.573.96.71 2.01 1.339 2.74 2.283.703.911 1.05 2.042 1.369 3.149a139.56 139.56 0 0 1 4.787 25.114 98.28 98.28 0 0 1 .365 5.326H44.076c-1.184 10.896 5.423 23.794 6.22 25.303-3.334.287-6.687.492-9.98.8-6.053.564-12.109 1.103-18.172 1.538l-.618.044v.546c7.672-.15 15.344.432 23.015.217 1.697-.047 3.394-.098 5.09-.152 2.612-.084 5.188-.055 7.806-.105 2.16-.041 4.646-1.005 5.153-3.106.01-.039.014-.078.022-.117 5.022-8.256 5.911-24.967 5.911-24.967h-6.556a67.214 67.214 0 0 1 6.59-20.826c2.74.588 4.855-2.304 6.11-4.808 9.75-19.445 16.49-40.813 16.233-62.563Z" fill="#1791B2"/><path d="M81.49 26.464a2.728 2.728 0 0 0-.048-.12c-2.787-6.558-6.722 2.951-6.886 8.853-.164 5.902-.82 13.772-5.738 20.166S57.342 75.2 53.735 82.578c-3.607 7.377 1.312 14.755 1.312 14.755s-4.062 8.98-6.23 14.94V78.938c-.002-2.134-.588-5.335.614-6.927.947-1.253 2.296-2.16 3.201-3.529a20.714 20.714 0 0 0 3.345-12.3c-.381-8.033-1.258-32.133-2.078-45.576-.14-2.292.078-7.998-2.18-9.618-5.506-3.948-7.518 5.752-7.996 8.869-.87 5.681.129 11.466-.595 17.18a803.667 803.667 0 0 1-1.974 14.392c-1.39 9.573-1.438 21.233 4.28 29.59.267.317.514.65.74.998 1.082 2.14.347 5.836.347 8.243v22.49c0 .461-.105 1.064 0 1.517-1.23-5.297-3.532-12.96-5.428-19.002-.256-1.71-1.36-5.071-3.047-9.454-2.239-5.82-26.884-60.454-30.293-58.034-4.1 2.91 2.355 14.388 3.683 17.093C20.453 53.233 25.044 61.43 25.7 68.971c.367 4.22 3.35 8.043 6.158 11.003a35.95 35.95 0 0 0 4.74 4.223c1.197.88 3.648 1.667 3.972 3.128.94 4.219 1.667 8.483 2.699 12.682.936 3.808 3.279 7.848 3.269 11.753 0 9.345-.006 18.691-.018 28.036h2.295v-20.33s6.139-17.112 7.753-21.093c2.654 1.248 6.032-1.56 7.05-3.602 6.251-12.54 13.17-24.898 15.963-38.725a140.72 140.72 0 0 0 2.461-17.417c.286-3.842.824-8.46-.552-12.165Z" fill="#11A47B"/><path d="M63.639 133.41c-.052.707-.136 1.696-.258 2.89-.021.232-.047.471-.074.72-.026.279-.056.567-.091.863-.065.585-.14 1.199-.218 1.84-.06.484-.126.981-.196 1.492a184.21 184.21 0 0 1-.388 2.638 105.724 105.724 0 0 0-.188 1.13c-.03.183-.06.37-.096.562-.081.489-.17.977-.265 1.474-.049.275-.105.549-.157.828l-.197.968-.143.685c-.096.458-.201.92-.306 1.378-.052.231-.104.462-.161.693-.127.528-.258 1.055-.393 1.583l-.313 1.164v.009c-.11.388-.218.776-.336 1.164-.022.07-.044.136-.061.205-.136.445-.275.881-.414 1.317l-.223.662c-.148.436-.3.867-.458 1.296-.161.422-.322.845-.492 1.26-.082.205-.166.409-.253.61a30.49 30.49 0 0 1-.772 1.692c-.109.218-.218.431-.326.645a35.117 35.117 0 0 1-.598 1.082c-.1.178-.205.348-.31.518a20.4 20.4 0 0 1-.318.502H40.111s-9.358-17.154-8.297-31.993a1.203 1.203 0 0 1 1.2-1.124h29.423a1.191 1.191 0 0 1 1.124.772c.058.152.084.313.078.475Z" fill="#EF5702"/><path d="m47.606 72.428 1.672-69.179-1.236 69.188a.218.218 0 0 1-.435-.008v-.001ZM9.817 21.126l.925 1.986.986 2.06 1.989 4.114 3.986 8.224 7.938 16.466c2.63 5.497 5.231 11.007 7.804 16.53a523.376 523.376 0 0 1 3.779 8.323 201.55 201.55 0 0 1 1.8 4.2c.29.705.575 1.411.843 2.125.278.71.513 1.435.705 2.172a19.26 19.26 0 0 0-.718-2.167 75.75 75.75 0 0 0-.855-2.119 199.299 199.299 0 0 0-1.824-4.19 518.124 518.124 0 0 0-3.827-8.298 1440.063 1440.063 0 0 0-7.902-16.482L17.41 37.653l-4.036-8.2-2.013-4.103-1-2.056-.493-1.032-.244-.52-.12-.262a2.454 2.454 0 0 1-.123-.354.199.199 0 0 1 .372-.136l.064.136Zm70.137 6.55c.017.001.03-.042.024-.024l-.013.055c-.01.035-.016.087-.024.13l-.037.28-.06.578-.105 1.164-.213 2.332A161.397 161.397 0 0 1 77.6 46.113a145.398 145.398 0 0 1-4.543 18.17 123.714 123.714 0 0 1-7.02 17.352 103.901 103.901 0 0 1-9.783 15.941 103.836 103.836 0 0 0 9.685-15.99 123.531 123.531 0 0 0 6.91-17.37 145.115 145.115 0 0 0 4.428-18.161c.546-3.07 1-6.153 1.362-9.25.181-1.548.341-3.098.48-4.652l.198-2.33.099-1.168.057-.587.039-.3c.01-.053.014-.098.027-.157l.022-.088a.501.501 0 0 1 .083-.156.219.219 0 0 1 .309 0 .218.218 0 0 1 0 .308h.002Z" fill="#ABF4E6"/><path d="M45.855 9.733a143.918 143.918 0 0 1 1.921 8.826c.274 1.48.515 2.967.7 4.462a30.51 30.51 0 0 1 .292 4.5 30.463 30.463 0 0 0-.4-4.485 75.79 75.79 0 0 0-.806-4.435 143.257 143.257 0 0 0-2.128-8.755v-.003a.218.218 0 0 1 .42-.115v.005Zm-.575 20.908c.012.043.021.085.028.129l.064.175c.04.116.1.238.15.358l.326.725c.221.485.438.975.64 1.47.41.988.763 1.999 1.056 3.028.293 1.028.51 2.076.647 3.136.137 1.057.189 2.124.157 3.19a20.069 20.069 0 0 0-.265-3.174 21.327 21.327 0 0 0-.747-3.09 27.42 27.42 0 0 0-1.148-2.961c-.217-.483-.447-.96-.685-1.435l-.353-.719c-.057-.125-.119-.238-.17-.373l-.08-.197a2.357 2.357 0 0 1-.057-.262.209.209 0 0 1 .405-.098l.033.098Zm-.779 20.815c.844.59 1.32 1.393 1.756 2.215.413.825.739 1.691.973 2.584.132.44.213.893.321 1.338.077.452.163.901.23 1.354.054.454.119.907.163 1.362l.107 1.366-.161-1.36c-.062-.452-.145-.901-.216-1.35-.083-.449-.188-.892-.282-1.337-.126-.437-.223-.882-.37-1.311-.264-.865-.617-1.7-1.052-2.493a8.193 8.193 0 0 0-.74-1.115 3.981 3.981 0 0 0-.933-.87l-.031-.02a.218.218 0 0 1 .221-.375c.004.005.01.009.014.012Zm9.096-26.069a10.222 10.222 0 0 0-3.316 3.069 10.19 10.19 0 0 0-.592.982 8.972 8.972 0 0 0-.918 3.316 9.104 9.104 0 0 1 .77-3.387 10.487 10.487 0 0 1 3.846-4.362.22.22 0 0 1 .243.007.218.218 0 0 1-.011.363l-.008.005-.014.007Zm-.916 19.922a.87.87 0 0 0-.403-.022c-.155.022-.306.07-.445.141a2.757 2.757 0 0 0-.418.254c-.124.113-.258.213-.374.337a7.187 7.187 0 0 0-1.175 1.7c-.16.31-.322.622-.453.948-.141.32-.28.644-.394.977-.256.655-.453 1.333-.666 2.004.178-.681.34-1.37.563-2.04.097-.34.22-.672.346-1.003.115-.335.261-.658.408-.983a7.444 7.444 0 0 1 1.131-1.825c.118-.14.26-.26.39-.391.147-.12.304-.226.47-.318a1.76 1.76 0 0 1 .548-.204 1.22 1.22 0 0 1 .64.023.218.218 0 0 1-.127.417l-.01-.003-.03-.012ZM11.916 30.471a22.382 22.382 0 0 1 2.848 3.317 47.904 47.904 0 0 1 2.39 3.621c.753 1.234 1.445 2.503 2.127 3.774l.983 1.93.94 1.95-.989-1.926-1.03-1.902c-.713-1.253-1.435-2.5-2.217-3.71a47.817 47.817 0 0 0-2.466-3.541 22.216 22.216 0 0 0-2.86-3.172l-.016-.015a.218.218 0 1 1 .285-.329l.005.003ZM22.65 54.952a19.124 19.124 0 0 1 2.94 2.62c.888.958 1.715 1.97 2.477 3.03a37.214 37.214 0 0 1 2.094 3.294c.331.56.613 1.148.92 1.72.289.582.559 1.174.838 1.76-.296-.579-.582-1.162-.886-1.735-.324-.563-.62-1.14-.966-1.69a36.961 36.961 0 0 0-2.176-3.22 31.173 31.173 0 0 0-2.536-2.932 18.846 18.846 0 0 0-2.936-2.475l-.014-.01a.218.218 0 1 1 .239-.364l.005.002Zm6.056 17.277a4.407 4.407 0 0 1 2.123-.006c.676.16 1.323.423 1.917.78.59.35 1.141.759 1.647 1.22l.725.719.671.767-.71-.729-.757-.674a9.932 9.932 0 0 0-1.68-1.112 6.44 6.44 0 0 0-1.876-.65 4.096 4.096 0 0 0-1.904.092l-.027.01a.217.217 0 0 1-.277-.137.22.22 0 0 1 .063-.234.217.217 0 0 1 .074-.043l.01-.003Zm33.808.632a9.27 9.27 0 0 1 1.698 3.178c.356 1.14.552 2.323.58 3.517l-.007.891c0 .297-.047.592-.069.887-.055.59-.143 1.176-.265 1.756-.11.58-.294 1.145-.437 1.718l-.588 1.67.536-1.687c.125-.576.29-1.143.382-1.723a15.47 15.47 0 0 0 .21-1.748c.011-.293.05-.585.04-.878l-.02-.879a12.535 12.535 0 0 0-.672-3.42 8.944 8.944 0 0 0-1.7-2.978l-.015-.018a.218.218 0 1 1 .323-.292l.004.006Zm5.004-9.44c.007-.032-.018-.06-.004-.04a.14.14 0 0 0 .025.033c.02.028.06.066.091.099l.223.211c.152.143.306.29.453.442.298.305.57.634.813.985a7.15 7.15 0 0 1 1.043 2.307c.415 1.646.27 3.362-.11 4.974.31-1.628.373-3.337-.1-4.916a6.875 6.875 0 0 0-1.914-3.078c-.148-.14-.302-.275-.46-.41l-.239-.209a1.775 1.775 0 0 1-.126-.125.526.526 0 0 1-.07-.089.368.368 0 0 1-.061-.184.216.216 0 0 1 .217-.217.218.218 0 0 1 .218.217h.001Zm11.233-10.103c-.146.005-.29.04-.423.104-.157.071-.307.16-.445.265-.143.106-.28.222-.41.345-.123.134-.255.26-.371.4a10.94 10.94 0 0 0-1.227 1.847 21.655 21.655 0 0 0-.958 2.026c-.295.689-.544 1.396-.801 2.1.222-.715.437-1.435.7-2.14.252-.71.54-1.405.865-2.085.322-.69.712-1.344 1.167-1.954.115-.153.248-.294.372-.443a5.26 5.26 0 0 1 .431-.4c.155-.128.325-.24.505-.332a1.73 1.73 0 0 1 .295-.117.985.985 0 0 1 .362-.048.217.217 0 0 1 .209.227.217.217 0 0 1-.227.208h-.002l-.042-.003Z" fill="#ABF4E6"/><path d="M69.022 79.021a.269.269 0 0 1-.002.207.198.198 0 0 1-.031.05c-.014.017-.033.042-.043.052l-.066.065-.124.111-.243.211-.478.419c-.316.281-.624.57-.925.867a20.472 20.472 0 0 0-1.69 1.891 15.375 15.375 0 0 0-2.469 4.43 15.49 15.49 0 0 1 2.294-4.56 20.716 20.716 0 0 1 1.63-1.988c.292-.315.592-.621.9-.92l.465-.442.231-.218.109-.107.046-.05c.008-.008.003-.006.007-.009-.004.008.013-.02-.009.017a.181.181 0 0 0 .008.169.22.22 0 0 1 .031-.24.217.217 0 0 1 .234-.064.217.217 0 0 1 .126.11Zm5.31-30.692a65.54 65.54 0 0 1 .23 3.246c.051 1.083.076 2.166.064 3.25a35.216 35.216 0 0 1-.16 3.244 15.76 15.76 0 0 1-.599 3.187c.273-1.046.437-2.117.49-3.196a34.41 34.41 0 0 0 .051-3.234 57.496 57.496 0 0 0-.174-3.23 63.703 63.703 0 0 0-.335-3.214v-.003a.217.217 0 0 1 .187-.245.218.218 0 0 1 .245.187v.008Zm2.335-16.306c-.002-.063-.03-.062-.007-.045a.515.515 0 0 0 .072.059l.205.139c.148.098.29.205.426.32.272.233.506.507.694.812a5.03 5.03 0 0 1 .66 1.973c.088.68.105 1.367.05 2.051-.05.679-.138 1.354-.263 2.023.09-.673.14-1.35.154-2.028a9.763 9.763 0 0 0-.156-2.01 4.768 4.768 0 0 0-.718-1.83 3.095 3.095 0 0 0-.662-.695 3.931 3.931 0 0 0-.404-.27l-.224-.137a.902.902 0 0 1-.13-.096.37.37 0 0 1-.133-.259.22.22 0 0 1 .13-.203.218.218 0 0 1 .305.195v.001Z" fill="#ABF4E6"/><path d="M63.639 133.41c-.052.707-.136 1.696-.257 2.89-.022.232-.048.471-.074.72-.026.279-.057.567-.092.863-.065.585-.14 1.199-.218 1.84a142.296 142.296 0 0 1-.584 4.13 96.298 96.298 0 0 0-.187 1.13c-.031.183-.061.37-.096.562-.082.489-.17.977-.266 1.474l-.157.828-.197.968-.143.685c-.096.458-.201.92-.306 1.378-.052.231-.104.462-.16.693-.128.528-.259 1.055-.394 1.583l-.313 1.164v.009l-.336 1.164c-.022.07-.044.136-.061.205-.136.445-.275.881-.414 1.317l-.223.662c-.148.436-.3.867-.458 1.296-.161.422-.322.845-.492 1.26a38.324 38.324 0 0 1-1.024 2.302l-.327.645c-.096.183-.197.366-.297.55a14.73 14.73 0 0 1-.3.532c-.101.178-.206.348-.31.518-.105.17-.21.336-.319.502H40.112c22.656-3.89 16.146-33.117 16.146-33.117h6.178a1.21 1.21 0 0 1 .868.367 1.189 1.189 0 0 1 .335.88Z" fill="#D14A07"/></svg>