<svg xmlns="http://www.w3.org/2000/svg" width="113" height="167" viewBox="0 0 113 167" fill="none"><path d="M94.776 82.93c.042-.105.067-.215.075-.327-.01.04-.04.154-.075.327Z" fill="#F9B4B9"/><path opacity=".5" d="M101.258 102.352c-.184-.478-4.254-1.556-5.99-1.438-3.119.216-6.25-.37-9.345.187-3.716.669-7.186 2.268-10.596 3.827-4.851 2.213-6.051 9.162-6.41 9.579-.36.417-1.51 1.437-1.51 1.437-.477.436-.287-.837-.287-.837s.719-18.684.78-19.223c.06-.539.118-.36 1.617-1.078 1.498-.719 1.678.298 4.012.658 2.334.36 6.647 3.115 8.562 3.715 4.478 1.398 10.722-2.328 13.475-5.63 1.2-1.438 3.172-5.03 3.593-5.688.42-.658-1.438-2.156-1.438-2.156-1.649-1.617-3.884-2.422-5.368-2.803a12.762 12.762 0 0 0-1.577-.312 8.067 8.067 0 0 1 1.258-.898c.514-.26.956-.813 1.355-1.212a74.263 74.263 0 0 0 1.678-1.757 4.596 4.596 0 0 0 1.103-1.67 1.76 1.76 0 0 0 .104-.93c-.093-.26-.341-.202-.564-.155-.467.09-.938.174-1.405.251-1.93.31-3.837.407-5.684 1.1-4.175 1.592-8.365 3.528-12.389 5.49-2.504 1.218-5.842 3.072-7.553 5.35a1.066 1.066 0 0 1-.78.478s0-12.037-.118-12.454c-.118-.417.596-1.437.837-2.637.24-1.2 1.858-2.454 2.515-3.173.658-.719.899 0 1.978.42.7.256 1.419.464 2.148.622 2.433.575 23.363 4.847 23.363 1.412 0-4.035-2.958-10.176-6.55-12.324-.389-.233-2.904-1.132-4.38-1.233-.511-.035-.899.022-1.032.238.025-.05.09-.19.237-.514.227-.51.654-1.466 1.423-3.234 1.836-4.2 1.714-9.44.087-13.665-.338-.88-.465-2.487-1.462-2.867-.34-.1-.7-.12-1.05-.058-3.183.323-6.503.729-9.367 2.241a50.7 50.7 0 0 0-6.169 3.928c-1.207.88-2.986 4.132-3.73 5.553-.215.417-.345.676-.345.676-.09-.5-.203-.996-.337-1.477l-.004-.022a24.857 24.857 0 0 0-2.12-5.148c-3.205-5.25-8.002-7.187-13.941-6.964-.378.015-2.702-.402-2.82-.226-.241.363-1.915 1.678-4.013 8.566-1.577 5.181 1.729 11.275 3.464 13.977.568.89.97 1.412.97 1.412-.158 0-1.246.539-2.413 1.132-1.063.542-2.192 1.124-2.738 1.383-1.134.54-2.993 2.515-2.993 2.937 0 .79 1.02 2.109 1.315 2.831a11.046 11.046 0 0 0 2.72 3.977 38.777 38.777 0 0 0 4.245 3.547c-1.301.276-2.58.646-3.828 1.108-2.307.832-2.955 1.475-2.955 1.475l.014-.006a15.01 15.01 0 0 0-2.38 1.886c-1.366 1.322-2.273 2.929-3.502 4.344-.776.898-1.315 2.937-1.854 3.773-.54.836-.96 2.098 3.054 2.937 3.385.707 5.192-.12 5.673-.396.008-.007.015-.014.022-.014l.1-.061c.004-.004.008-.007.011-.007.209.912.92 1.63 1.987 2.224 2.29 1.268 6.222 1.948 10.351 2.684 4.337.772 8.117-.672 9.91-1.549.38-.183.749-.385 1.107-.607l-.299 19.525s-3.054-2.458-4.07-3.234a4.008 4.008 0 0 1-.981-1.175c-.698-1.189-1.12-2.734-1.9-3.733-1.122-1.445-2.67-2.584-4.162-3.511a21.04 21.04 0 0 0-3.481-1.778 17.182 17.182 0 0 0-7.815-1.067c-2.307.208-4.92.395-7.007 1.462-3.557 1.821-7.143 5.443-8.613 9.209-.417 1.071-.657.952-.657 1.25 0 .669 2.087 2.091 2.53 2.479 1.45 1.287 2.96 2.598 4.609 3.622 4.34 2.695 11.002 1.11 15.738.485 3.172-.417 8.505-3.291 10-4.789 1.394-1.396 1.337-1.179 1.706-1.29.025-.007.058-.018.09-.029 1.977.718 4.132 4.373 4.132 4.373l-.38 10.42H35.976l1.203 13.661c.213 2.42.96 4.764 2.185 6.862l1.036 1.772a30.48 30.48 0 0 1 1.988 4.066c1.055 2.638 1.812 6.387 3.867 8.381a.613.613 0 0 1 .207.307c.061.34-.407.494-.753.508l-7.586.289c-2.39.091-4.999.268-6.76 1.887 1.027.116 2.062.15 3.094.101 3.721-.078 7.443-.156 11.164-.189 4.626-.041 9.257-.147 13.883-.123 2.846.015 6.743.558 8.554-2.231 1.328-2.044 2.015-4.836 2.915-7.087l.737-1.845a31.04 31.04 0 0 1 1.991-4.063l1.035-1.772a16.457 16.457 0 0 0 2.184-6.861l1.204-13.661H67.73a97.962 97.962 0 0 1-.128-2.706c-.118-3.187-.194-7.236-.194-7.236 1.427-3.712 3.428-1.977 3.428-1.977 2.99 1.628 6.417 2.138 9.69 1.142 3.047-.927 5.767-2.702 8.875-3.478 2.875-.719 4.729-1.376 6.766-2.454 2.53-1.34 6.249-5.322 5.092-8.444ZM67.9 90.433c.488-.71 1.175-1.559 2.008-1.857a11.108 11.108 0 0 1 2.537-.536c.769-.079 1.79-.244 2.537-.046-1.229 1.304-3.234 1.936-4.172 3.578a3.685 3.685 0 0 0-.276.655 2.98 2.98 0 0 1-.622 1.181c-.539.51-1.373.694-1.998 1.082-.173-1.3-.014-2.734-.014-4.056Zm.575-20.958c.295-.092.58-.212.852-.36.535-.265 1.013-.538 1.15-.362a.274.274 0 0 1 .035.194c-.06.707-1.977 2.684-2.515 2.924 0 0-.421-2.155.477-2.396Zm-4.376-2.537a.814.814 0 0 1 .2.169c.059.065.111.136.156.212.026.042.048.087.07.132.017.03.034.06.05.092.071.152.132.31.192.444.212.475.452.934.632 1.427.071.214.108.439.111.665.01.325-.013.65-.069.97v.006l-.02.114v.003c-.005.03-.01.051-.014.068l-.002.012-.005.02-.044-.148a42.414 42.414 0 0 0-.24-.75c-.053-.159-.116-.328-.179-.508-.374-1.049-.91-2.353-1.354-2.673a.418.418 0 0 0-.076-.047c.055.026.34-.352.59-.208h.002Zm1.3 9.543s-.021 1.14 0 2.156c.022 1.017 0 4.553 0 4.553s-.183.18-.887 0c-.798-.202-1.581-.471-2.36-.733-.69-.233-1.445-.586-2.178-.647-.42-.036-.776-.582-.999-.891-.255-.35-.647-1.211-1.1-1.322-.23-.061 6.665-.899 7.524-3.115Zm-8.07 8c.021-.011.046-.018.068-.03a.124.124 0 0 1-.022.03h-.047Zm7.739 7.506a8.045 8.045 0 0 0-1.451-2.559 29.634 29.634 0 0 0-2.034-2.023 23.703 23.703 0 0 0-2.465-2.026c-.5-.349-1.078-.884-1.721-.898a.299.299 0 0 1 .021-.037c.727-.267 1.431-.59 2.11-.963.191-.13.396-.24.61-.33.314-.095.644-.125.97-.087 1.348.097 3.27.636 3.896 1.98.496 1.067.492 3.108.439 4.9v.004c0 .065-.004.13-.008.195v.014c-.036 1.142-.09 2.163-.036 2.733a35.772 35.772 0 0 0-.331-.904Z" fill="#F9B4B9"/><path d="M80.564 70.147a8.55 8.55 0 0 1 .087-.381c-.01.13-.039.26-.087.38Z" fill="#B1FE26"/><path d="M88.115 92.774c-.213-.556-4.956-1.812-6.977-1.674-3.635.251-7.284-.431-10.888.218-4.329.778-8.374 2.641-12.346 4.458-5.65 2.579-7.049 10.675-7.467 11.16-.419.49-1.759 1.675-1.759 1.675-.556.506-.334-.976-.334-.976s.837-21.768.908-22.396c.071-.628.138-.418 1.884-1.255 1.745-.837 1.955.349 4.675.766 2.721.417 7.745 3.629 9.976 4.328 5.216 1.628 12.492-2.713 15.698-6.56 1.398-1.674 3.697-5.86 4.187-6.626.49-.766-1.674-2.512-1.674-2.512-1.922-1.884-4.526-2.82-6.254-3.265a14.86 14.86 0 0 0-1.838-.364.046.046 0 0 1 .012-.009 1.1 1.1 0 0 1 .1-.083 9.428 9.428 0 0 1 1.353-.955c.599-.301 1.114-.946 1.578-1.41a88.123 88.123 0 0 0 1.955-2.047 5.357 5.357 0 0 0 1.285-1.949c.087-.288.23-.782.122-1.083-.11-.302-.398-.235-.658-.18-.544.104-1.092.203-1.636.292-2.248.36-4.471.473-6.623 1.281-4.864 1.855-9.745 4.111-14.434 6.397-2.917 1.419-6.806 3.579-8.799 6.233a1.242 1.242 0 0 1-.908.557s0-14.024-.138-14.508c-.143-.49.694-1.675.975-3.073.28-1.398 2.164-2.859 2.93-3.696.766-.837 1.047 0 2.303.49.817.297 1.653.54 2.503.724 2.834.668 27.218 5.647 27.218 1.645 0-4.701-3.445-11.855-7.631-14.358-.452-.273-3.382-1.32-5.103-1.436-.594-.042-1.047.025-1.201.276.029-.058.104-.222.276-.599.263-.594.762-1.707 1.657-3.767 2.14-4.894 1.997-10.997.1-15.92-.393-1.026-.54-2.897-1.703-3.34a2.672 2.672 0 0 0-1.221-.068c-3.71.378-7.577.85-10.914 2.613a59.112 59.112 0 0 0-7.187 4.575c-1.407 1.026-3.479 4.814-4.345 6.472-.252.485-.402.787-.402.787a19.39 19.39 0 0 0-.394-1.72l-.004-.026a28.97 28.97 0 0 0-2.47-5.999c-3.734-6.116-9.322-8.373-16.242-8.111-.44.016-3.148-.47-3.285-.264-.28.423-2.231 1.955-4.676 9.98-1.838 6.036 2.013 13.136 4.035 16.284a24.826 24.826 0 0 0 1.13 1.645c-.184 0-1.453.628-2.813 1.318-1.239.633-2.553 1.31-3.19 1.612-1.322.628-3.486 2.93-3.486 3.42 0 .921 1.189 2.458 1.532 3.299a12.865 12.865 0 0 0 3.169 4.634 45.248 45.248 0 0 0 4.943 4.132c-4.132.916-7.56 2.193-10.658 5.199-1.591 1.54-2.65 3.412-4.082 5.06-.904 1.048-1.532 3.421-2.16 4.396-.628.976-1.118 2.445 3.558 3.42 3.944.825 6.048-.138 6.61-.46.009-.008.017-.017.025-.017.059-.033.097-.058.117-.07.004-.005.008-.01.012-.01.243 1.064 1.072 1.901 2.315 2.592 2.667 1.478 7.25 2.268 12.06 3.127 5.053.901 9.457-.783 11.546-1.803.442-.213.872-.449 1.29-.707l-.35 22.747s-3.558-2.863-4.742-3.768a4.608 4.608 0 0 1-1.139-1.364l-.004-.004c-.812-1.386-1.306-3.186-2.215-4.35-1.306-1.683-3.11-3.01-4.847-4.09a24.534 24.534 0 0 0-4.057-2.072 20.028 20.028 0 0 0-9.104-1.243c-2.688.243-5.731.46-8.163 1.704-4.145 2.122-8.322 6.342-10.034 10.728-.486 1.248-.766 1.11-.766 1.457 0 .779 2.432 2.436 2.947 2.889 1.69 1.498 3.449 3.026 5.37 4.219 5.057 3.14 12.818 1.294 18.336.565 3.696-.485 9.908-3.834 11.65-5.58 1.624-1.624 1.557-1.373 1.988-1.503.03-.008.067-.021.105-.033 2.302.837 4.814 5.095 4.814 5.095l-.486 13.324h3.625c-.1-.335-.197-2.164-.276-4.337a549.085 549.085 0 0 1-.226-8.432c1.662-4.324 3.994-2.302 3.994-2.302 3.483 1.896 7.476 2.491 11.29 1.331 3.55-1.08 6.718-3.148 10.34-4.052 3.348-.837 5.508-1.603 7.882-2.859 2.947-1.562 7.28-6.2 5.931-9.839ZM49.25 78.89c.57-.829 1.369-1.817 2.34-2.164.957-.323 1.95-.532 2.955-.624.896-.092 2.085-.285 2.956-.054-1.432 1.52-3.767 2.256-4.86 4.17-.132.242-.24.497-.322.76-.185.507-.356 1.026-.725 1.378-.628.594-1.599.808-2.327 1.26-.2-1.515-.017-3.185-.017-4.726Zm.669-24.418a5.43 5.43 0 0 0 .992-.418c.623-.31 1.18-.628 1.34-.423a.316.316 0 0 1 .041.226c-.071.825-2.302 3.127-2.93 3.407.002 0-.488-2.511.56-2.792h-.003Zm-5.097-2.955a.951.951 0 0 1 .235.197c.139.163.253.347.339.544.075.167.142.335.205.481.247.553.527 1.089.737 1.662.082.25.126.511.13.774a6.06 6.06 0 0 1-.13 1.39s-.13-.436-.331-1.046a33.795 33.795 0 0 0-.21-.59c-.435-1.222-1.058-2.742-1.577-3.115a.497.497 0 0 0-.088-.054c.066.029.397-.41.69-.243Zm1.516 11.118s-.026 1.327 0 2.512c.025 1.185 0 5.304 0 5.304s-.214.209-1.034 0c-.93-.235-1.842-.549-2.75-.854-.804-.272-1.684-.683-2.537-.754-.49-.041-.905-.678-1.163-1.038-.298-.407-.754-1.41-1.281-1.54-.27-.071 7.764-1.047 8.765-3.63Zm-.386 18.063a9.375 9.375 0 0 0-1.69-2.98c-.742-.829-1.55-1.603-2.37-2.357A27.599 27.599 0 0 0 39.02 73c-.581-.408-1.256-1.03-2.006-1.047h-.08c.026-.013.055-.021.08-.034a18.071 18.071 0 0 0 2.482-1.13c.224-.152.462-.28.712-.385.366-.111.75-.145 1.13-.1 1.57.112 3.81.74 4.538 2.306.578 1.243.574 3.62.51 5.71v.004c0 .075-.004.15-.008.226v.017c-.041 1.33-.104 2.52-.041 3.185a35.65 35.65 0 0 0-.385-1.055Z" fill="#5960A3"/><path d="M1.308 104.565a74.434 74.434 0 0 1 10.023-2.567 75.856 75.856 0 0 1 10.29-1.208 52.003 52.003 0 0 1 10.347.547 38.15 38.15 0 0 1 5.046 1.198 29.686 29.686 0 0 1 4.76 2.03 32.276 32.276 0 0 0-4.82-1.834 38.282 38.282 0 0 0-5.035-1.075 54.29 54.29 0 0 0-10.28-.447c-3.438.151-6.862.52-10.252 1.104a93.168 93.168 0 0 0-5.067.992 80.295 80.295 0 0 0-5.013 1.26Z" fill="#B2B7DC"/><path d="M10.308 108.751c.924-1.221 1.907-2.377 2.866-3.551.485-.584.958-1.174 1.42-1.771.227-.301.452-.605.657-.92.227-.301.388-.646.473-1.014-.007.39-.108.772-.294 1.114a9.27 9.27 0 0 1-.569 1.007 20.137 20.137 0 0 1-1.363 1.849 26.993 26.993 0 0 1-3.19 3.286Zm3 .488a87.726 87.726 0 0 0 1.74-1.831 31.031 31.031 0 0 0 1.638-1.901 15.778 15.778 0 0 0 1.43-2.041c.44-.71.752-1.492.92-2.31a5.362 5.362 0 0 1-.632 2.464c-.189.384-.4.757-.634 1.117-.245.349-.487.702-.755 1.032a17.86 17.86 0 0 1-1.734 1.868 16.42 16.42 0 0 1-1.973 1.602Zm1.186 1.396c.375-.342.75-.678 1.105-1.039a25.98 25.98 0 0 0 1.058-1.076 31.685 31.685 0 0 0 1.945-2.293 22.509 22.509 0 0 0 1.666-2.494l.362-.659c.12-.22.212-.453.322-.679.242-.445.38-.931.59-1.396a11.87 11.87 0 0 1-.989 2.883 15.403 15.403 0 0 1-1.618 2.598 19.025 19.025 0 0 1-2.051 2.265 16.13 16.13 0 0 1-2.39 1.89Zm5.93 0c.524-.802 1.062-1.586 1.598-2.373l1.597-2.361a76.289 76.289 0 0 0 1.547-2.388c.255-.4.488-.812.716-1.227l.327-.632.285-.654a10.11 10.11 0 0 1-1.047 2.672 26.646 26.646 0 0 1-1.48 2.461 38.643 38.643 0 0 1-1.686 2.318c-.594.749-1.199 1.489-1.857 2.184Zm3.977-1.046c1.023-1.338 2.06-2.643 3.02-4.003.49-.674.937-1.373 1.353-2.088a7.14 7.14 0 0 0 .93-2.294 5.386 5.386 0 0 1-.64 2.445 14.92 14.92 0 0 1-1.3 2.18 22.33 22.33 0 0 1-3.363 3.76Zm4.395-1.187 1.292-1.621c.426-.54.85-1.078 1.244-1.635a13.48 13.48 0 0 0 1.083-1.721c.155-.298.277-.611.364-.934a1.693 1.693 0 0 0-.006-.996c.183.31.256.673.209 1.03a3.854 3.854 0 0 1-.269 1.033 8.903 8.903 0 0 1-1.04 1.832 15.311 15.311 0 0 1-2.877 3.012ZM10.028 97.448c.34.429.69.843 1.034 1.254.348.407.7.81 1.082 1.18.368.378.77.723 1.2 1.029.435.31.916.549 1.425.707a3.255 3.255 0 0 1-1.597-.429 5.782 5.782 0 0 1-1.325-1.011 8.3 8.3 0 0 1-1.047-1.28 7.506 7.506 0 0 1-.772-1.45ZM12.4 94.1c-.05.087-.004.194.018.288.029.096.062.19.1.283.076.186.16.369.254.547.178.36.378.71.586 1.053a16.75 16.75 0 0 0 1.392 1.954c.506.617 1.07 1.185 1.683 1.696a9.55 9.55 0 0 0 2.035 1.283 6.624 6.624 0 0 1-1.163-.4 7.752 7.752 0 0 1-1.07-.623 9.454 9.454 0 0 1-1.808-1.689 11.478 11.478 0 0 1-1.354-2.064 9.206 9.206 0 0 1-.49-1.132 6.643 6.643 0 0 1-.171-.593 2.89 2.89 0 0 1-.057-.305c0-.097-.026-.218.045-.298Zm4.885 0c.98 1.216 1.91 2.453 2.883 3.654.485.6.983 1.188 1.504 1.753.27.272.535.55.828.796.143.129.294.247.453.354.075.059.159.108.247.145l.26.136c-.778-.164-1.433-.683-2.016-1.197a16.787 16.787 0 0 1-1.602-1.723 23.006 23.006 0 0 1-2.557-3.918Zm6.175-1.188c.346.766.7 1.523 1.055 2.277.361.75.726 1.497 1.129 2.221.389.728.83 1.427 1.32 2.092.501.644 1.056 1.282 1.833 1.615-.839-.177-1.532-.777-2.086-1.408a11.821 11.821 0 0 1-1.435-2.097 19.363 19.363 0 0 1-1.815-4.7Zm5.336.699c.326.773.675 1.53 1.025 2.284.357.75.724 1.493 1.14 2.207.399.72.853 1.41 1.358 2.061a8.34 8.34 0 0 0 1.771 1.723 5.989 5.989 0 0 1-2.02-1.512 11.282 11.282 0 0 1-1.472-2.066 16.43 16.43 0 0 1-1.076-2.286 15.344 15.344 0 0 1-.726-2.41Zm5.294 2.441c.19.628.405 1.24.624 1.847.227.604.465 1.2.742 1.778.276.577.59 1.135.938 1.671.365.532.779 1.029 1.235 1.486a5.721 5.721 0 0 1-1.497-1.291 9.076 9.076 0 0 1-1.054-1.686 10.46 10.46 0 0 1-.988-3.805Zm17.451 11.304c1.34-.949 2.72-1.843 4.106-2.725a116.49 116.49 0 0 1 4.238-2.519 56.233 56.233 0 0 1 8.952-4.16c1.585-.507 3.185-.847 4.772-1.266l4.763-1.245 9.518-2.529a302.018 302.018 0 0 1-9.434 2.838c-1.577.458-3.164.88-4.751 1.303-1.585.431-3.198.79-4.737 1.295-3.097 1.03-6.036 2.512-8.929 4.044a150.735 150.735 0 0 0-8.498 4.964Z" fill="#B2B7DC"/><path d="M55.588 99.534c.434.025.861.117 1.267.273.414.15.803.362 1.153.629.358.273.653.62.864 1.018.196.402.263.855.192 1.296a3.54 3.54 0 0 0-.474-1.132 4.143 4.143 0 0 0-.838-.851 7.3 7.3 0 0 0-1.032-.664 24.61 24.61 0 0 0-1.132-.569Zm2.93-2.518a4.869 4.869 0 0 1 1.53.354c.504.191.966.479 1.36.847.405.38.681.88.787 1.426a2.557 2.557 0 0 1-.268 1.561 3.634 3.634 0 0 0-.05-1.489 2.81 2.81 0 0 0-.76-1.196 5.392 5.392 0 0 0-1.208-.854 13.943 13.943 0 0 0-1.39-.649Zm4.186-1.8c.43.14.83.358 1.178.646.358.286.664.634.901 1.027.24.399.386.847.426 1.311.042.455-.028.912-.203 1.334.01-.431-.03-.862-.12-1.283a3.835 3.835 0 0 0-.464-1.15 7.406 7.406 0 0 0-1.718-1.885Zm5.093-1.605c.29.305.517.665.666 1.058.157.398.242.82.251 1.246a4.2 4.2 0 0 1-.044.64 3.38 3.38 0 0 1-.18.615 2.93 2.93 0 0 1-.693 1.044c.157-.37.284-.751.38-1.141a4.29 4.29 0 0 0 .12-1.15 6.843 6.843 0 0 0-.5-2.312Zm3.21-1.604a9.4 9.4 0 0 1 .33 1.462c.059.502.067 1.009.025 1.512a5.994 5.994 0 0 1-.31 1.494c-.165.485-.385.95-.656 1.385l-.084-.3c.473.282.895.64 1.25 1.058.349.407.652.85.905 1.322.248.468.458.955.63 1.456.084.25.146.507.218.759.06.256.11.514.159.771-.094-.245-.18-.492-.267-.737-.103-.24-.194-.483-.304-.717-.205-.474-.445-.93-.72-1.367a8.587 8.587 0 0 0-.92-1.219 4.858 4.858 0 0 0-1.135-.951l-.196-.112.113-.187a7.044 7.044 0 0 0 1.005-2.692c.075-.483.104-.972.087-1.46-.016-.494-.06-.988-.13-1.477Zm2.512 0c.185.401.32.823.403 1.257.09.435.135.878.133 1.322.005.451-.064.9-.203 1.33a2.145 2.145 0 0 1-.753 1.1c.22-.363.367-.765.436-1.183.073-.413.107-.831.101-1.25.013-.846-.072-1.697-.117-2.576Zm3.348 0c.136.355.21.732.22 1.112.015.385-.024.769-.115 1.142a3.27 3.27 0 0 1-.486 1.054 2.323 2.323 0 0 1-.874.737c.228-.282.427-.586.595-.908.152-.317.273-.648.36-.988.161-.707.262-1.426.3-2.15Zm3.908 0a2.257 2.257 0 0 1-.065 2.192c-.2.33-.468.613-.787.829-.157.103-.32.194-.491.271-.174.066-.35.12-.531.164.14-.126.286-.23.425-.34.13-.123.272-.225.391-.349a3.73 3.73 0 0 0 .631-.785c.169-.288.288-.603.354-.93.07-.346.094-.7.073-1.052Zm-17.368 8.451c.505.148.975.397 1.382.732.84.667 1.426 1.6 1.663 2.646.12.511.15 1.039.09 1.56a12.08 12.08 0 0 0-.403-1.469 6.789 6.789 0 0 0-1.567-2.495 7.98 7.98 0 0 0-1.165-.974Zm3.135-1.425a7.987 7.987 0 0 1 2.532 2.309c.337.474.613.987.823 1.529.206.541.316 1.115.323 1.694a10.427 10.427 0 0 0-.622-1.563 11.657 11.657 0 0 0-.864-1.418c-.32-.453-.673-.885-1.038-1.308-.372-.42-.75-.838-1.154-1.243Zm7.308-2.213a2.794 2.794 0 0 1 1.711.397c.52.314.956.75 1.27 1.27.307.512.53 1.07.66 1.652.049.291.099.582.13.873.004.294.023.584.014.875-.086-.281-.146-.562-.217-.84l-.242-.819a7.606 7.606 0 0 0-.7-1.518 4.264 4.264 0 0 0-1.093-1.22 3.66 3.66 0 0 0-1.534-.67Zm3.402-.906c.605.04 1.182.27 1.651.654.48.365.899.805 1.24 1.302.182.239.32.504.478.757.134.266.272.53.389.802.108.276.217.553.308.833.075.287.163.568.224.857l-.826-1.546c-.278-.503-.583-.99-.913-1.461a7.803 7.803 0 0 0-1.107-1.293 5.104 5.104 0 0 0-.669-.528 2.692 2.692 0 0 0-.775-.377Zm3.183-.875c.481.029.95.17 1.366.413a4.01 4.01 0 0 1 1.12.925c.31.376.552.8.72 1.257.083.225.15.456.197.69.038.235.064.472.075.71-.104-.218-.178-.437-.271-.649-.107-.206-.181-.423-.3-.618a7.846 7.846 0 0 1-.161-.298c-.058-.097-.123-.19-.184-.283a5.585 5.585 0 0 0-1.371-1.459 5.886 5.886 0 0 0-1.191-.688Zm2.186-.613a2.094 2.094 0 0 1 1.18-.016 2.775 2.775 0 0 1 1.827 1.49c.178.355.283.74.31 1.136a10.415 10.415 0 0 0-.59-.968 3.79 3.79 0 0 0-.731-.791 3.642 3.642 0 0 0-.917-.557 3.885 3.885 0 0 0-1.079-.294ZM26.075 18.68a53.498 53.498 0 0 1 4.798 8.25c.697 1.432 1.267 2.937 1.86 4.399a66.13 66.13 0 0 0 1.996 4.316 51.476 51.476 0 0 0 4.884 8.134c.469.63 1 1.209 1.587 1.73.157.116.298.232.469.348.165.117.337.226.49.358.315.25.612.521.89.812a18.113 18.113 0 0 1 2.77 3.886 19.17 19.17 0 0 0-2.916-3.742 8.868 8.868 0 0 0-.89-.77c-.31-.238-.645-.43-.978-.686a11.682 11.682 0 0 1-1.675-1.737 34.864 34.864 0 0 1-2.701-3.954 64.872 64.872 0 0 1-2.306-4.191 67.09 67.09 0 0 1-1.973-4.358l-.872-2.22a62.243 62.243 0 0 0-3.028-6.46 60.954 60.954 0 0 0-2.405-4.116Z" fill="#B2B7DC"/><path d="M24.261 27.052a14.5 14.5 0 0 1 2.596.64c.851.28 1.675.639 2.462 1.07.795.425 1.532.953 2.19 1.57.165.155.32.319.466.492l.226.25.196.277c.257.367.472.763.64 1.179a17.89 17.89 0 0 1-.378-.547 4.34 4.34 0 0 0-.423-.505l-.212-.248-.24-.224a5.738 5.738 0 0 0-.488-.434 14.162 14.162 0 0 0-2.178-1.444 24.272 24.272 0 0 0-2.374-1.137 22.045 22.045 0 0 0-1.231-.487c-.412-.164-.831-.306-1.252-.453Zm1.047 7.046a13.804 13.804 0 0 1 2.896-.182 13.03 13.03 0 0 1 2.891.407 8.209 8.209 0 0 1 2.675 1.204c.402.286.767.62 1.087.994.307.38.557.803.743 1.254a6.03 6.03 0 0 0-2.006-1.98 9.727 9.727 0 0 0-2.606-1.067 18.251 18.251 0 0 0-2.806-.495 20.075 20.075 0 0 0-1.431-.102c-.48-.028-.96-.032-1.443-.033Zm3.977 8.302a6.895 6.895 0 0 1 1.914-1.443 6.558 6.558 0 0 1 2.323-.706 6.77 6.77 0 0 1 1.227-.003c.405.056.804.153 1.188.291.194.06.383.137.565.227l.53.294c.174.102.337.219.49.349.16.122.314.247.465.375a8.808 8.808 0 0 0-2.147-.934 5.616 5.616 0 0 0-2.276-.185 7.75 7.75 0 0 0-2.227.584 10.88 10.88 0 0 0-2.052 1.152Z" fill="#B2B7DC"/><path d="M34.378 21.75c-.164.45-.33.897-.462 1.355-.149.452-.28.91-.399 1.369a25.817 25.817 0 0 0-.561 2.781 18.658 18.658 0 0 0-.197 2.823l.016.71c.014.236.047.47.067.706.013.48.142.938.194 1.418a10.498 10.498 0 0 1-.599-2.82 13.13 13.13 0 0 1 .104-2.895c.139-.957.363-1.898.67-2.815a13.79 13.79 0 0 1 1.167-2.633Zm4.744 7.534c-.211.39-.425.774-.61 1.174a23.321 23.321 0 0 0-1.447 3.65c-.25.832-.433 1.684-.547 2.546l-.071.65c-.02.217-.013.436-.023.654-.045.44.024.872.018 1.32a8.887 8.887 0 0 1-.245-2.653c.052-.894.209-1.78.467-2.637.257-.855.594-1.684 1.006-2.476.403-.793.89-1.54 1.452-2.228Zm2.024 8.492a17.104 17.104 0 0 0-.839 1.806 6.577 6.577 0 0 0-.342 2.87l.059.484.105.478c.03.161.072.32.126.475l.146.474c.102.317.248.616.356.94a11.97 11.97 0 0 1-.544-.858 6.323 6.323 0 0 1-.399-.942 5.504 5.504 0 0 1-.295-2.04 5.26 5.26 0 0 1 .488-2.004c.145-.31.317-.608.513-.888.192-.282.43-.528.626-.795Zm7.534 15.648a73.023 73.023 0 0 1 4.302-8.921 61.137 61.137 0 0 1 5.521-8.241c1.04-1.294 2.182-2.497 3.29-3.712 1.108-1.215 2.198-2.458 3.293-3.69a187.751 187.751 0 0 0 3.217-3.759c1.065-1.26 2.106-2.54 3.123-3.84-1.899 2.705-3.974 5.277-6.095 7.809a153.706 153.706 0 0 1-3.255 3.735c-1.105 1.232-2.229 2.433-3.248 3.72a64.916 64.916 0 0 0-5.569 8.138 79.303 79.303 0 0 0-2.398 4.322 85.728 85.728 0 0 0-2.18 4.44Z" fill="#B2B7DC"/><path d="M59.426 23.842c.426.672.801 1.375 1.124 2.103.33.726.611 1.473.843 2.236.24.764.405 1.55.492 2.347a6.015 6.015 0 0 1-.16 2.384 8.836 8.836 0 0 0-.163-2.338 19.475 19.475 0 0 0-.57-2.272 40.705 40.705 0 0 0-.744-2.235c-.272-.74-.54-1.482-.822-2.225Zm3.489-2.092a17.719 17.719 0 0 1 1.612 3.613c.204.632.36 1.278.47 1.934a4.331 4.331 0 0 1-.063 1.987c-.005-.168.013-.329 0-.49-.02-.163-.027-.324-.06-.483-.05-.32-.122-.635-.199-.95a34.847 34.847 0 0 0-.547-1.871c-.397-1.243-.833-2.473-1.213-3.74Zm-7.397 5.302a12.002 12.002 0 0 1 1.6 2.384c.448.856.796 1.761 1.038 2.697.23.945.313 1.92.246 2.89a7.138 7.138 0 0 1-.828 2.753c.151-.45.27-.91.354-1.376.05-.229.088-.46.111-.693l.042-.7c0-.935-.112-1.866-.331-2.774a17.605 17.605 0 0 0-.922-2.659 15.12 15.12 0 0 0-.615-1.277c-.209-.425-.45-.835-.695-1.245Z" fill="#B2B7DC"/><path d="M52.17 30.889a18.73 18.73 0 0 1 1.557 2.63c.451.922.82 1.882 1.102 2.868.284.995.431 2.024.437 3.06a7.663 7.663 0 0 1-.659 3.043l-.267-.279c.887-.335 1.809-.57 2.748-.702.935-.14 1.884-.162 2.825-.065a9.18 9.18 0 0 1 2.73.697l.64.3.6.367c.098.063.2.12.296.187l.274.22.542.441a9.426 9.426 0 0 0-2.425-1.332 9.161 9.161 0 0 0-2.683-.57 12.93 12.93 0 0 0-2.742.126c-.904.139-1.79.377-2.641.71l-.476.19.209-.47a7.62 7.62 0 0 0 .644-2.87c0-1.002-.124-2-.37-2.97a17.168 17.168 0 0 0-.976-2.863 22.336 22.336 0 0 0-1.366-2.718Zm0 15.376c.89-.212 1.795-.352 2.709-.416a20.158 20.158 0 0 1 2.748-.029c.918.06 1.83.196 2.725.407.893.218 1.754.55 2.562.989-.443-.125-.861-.295-1.309-.383-.432-.13-.88-.204-1.32-.29-.89-.14-1.784-.25-2.684-.305-.9-.054-1.803-.068-2.709-.067-.453 0-.906.012-1.359.034-.455.004-.907.037-1.364.06Z" fill="#B2B7DC"/><path d="M57.958 37.273c1.66-.311 3.362-.32 5.025-.025.84.143 1.654.41 2.416.79a5.025 5.025 0 0 1 1.91 1.642 6.5 6.5 0 0 0-2.049-1.346 10.991 10.991 0 0 0-2.355-.674 19.9 19.9 0 0 0-2.453-.301 37.747 37.747 0 0 0-2.494-.086Zm2.515-2.993a12.669 12.669 0 0 1 2.456-.56c.84-.115 1.689-.143 2.534-.086a7.429 7.429 0 0 1 2.484.59 3.842 3.842 0 0 1 1.875 1.68 4.53 4.53 0 0 0-2-1.377 8.922 8.922 0 0 0-2.391-.476 18.733 18.733 0 0 0-2.471-.008c-.828.05-1.657.125-2.487.238Zm3.721-4.146a3.664 3.664 0 0 1 1.692-.426 7.12 7.12 0 0 1 1.754.147c.572.128 1.13.315 1.662.56.27.111.52.266.775.403.245.158.489.316.72.49-.545-.204-1.075-.41-1.615-.59a15.893 15.893 0 0 0-1.63-.454 11.566 11.566 0 0 0-1.667-.23 5.701 5.701 0 0 0-1.69.1Zm3.116-9.501c.002.11.033.217.09.31l.135.306c.088.206.175.413.245.627.137.43.237.872.3 1.32.06.448.083.901.068 1.354-.016.452-.06.902-.13 1.35l-.242-.24a9.826 9.826 0 0 1 1.456-.119c.487-.006.974.034 1.454.12.483.083.952.233 1.393.446.436.22.81.544 1.091.944a3.245 3.245 0 0 0-1.177-.752 4.972 4.972 0 0 0-1.355-.31 9.259 9.259 0 0 0-1.398-.046c-.465.012-.93.055-1.39.127l-.283.044.04-.284.094-.647c.017-.217.047-.433.059-.65.026-.436.03-.872.009-1.307a8.574 8.574 0 0 0-.18-1.298 8.228 8.228 0 0 0-.154-.643l-.091-.32a.644.644 0 0 1-.035-.332Zm14.232 42.698a37.846 37.846 0 0 1-7.04 4.784 19.952 19.952 0 0 1-3.972 1.603c-.174.047-.344.103-.519.143l-.53.102-.532.103c-.18.021-.36.031-.54.047-.734.08-1.417.056-2.122.138-2.81.261-5.573.897-8.215 1.89a28.75 28.75 0 0 0-3.867 1.715 17.976 17.976 0 0 0-3.5 2.382c2.027-2.006 4.617-3.352 7.253-4.4a30.691 30.691 0 0 1 8.295-2.005c.706-.076 1.446-.048 2.125-.12.172-.014.346-.021.518-.04l.514-.094.515-.095c.17-.037.338-.09.507-.135a21.88 21.88 0 0 0 3.925-1.522c1.268-.626 2.5-1.32 3.692-2.08a42.23 42.23 0 0 0 3.493-2.416Z" fill="#B2B7DC"/><path d="M75.612 64.1c.072.42.07.852-.007 1.273a4.622 4.622 0 0 1-.707 1.79c-.124.177-.26.345-.407.503-.29.317-.634.578-1.018.77.27-.312.525-.638.763-.975.23-.33.432-.678.602-1.042.347-.74.607-1.52.774-2.32Zm-4.186 1.395c.093.37.16.746.203 1.126.037.389.02.78-.051 1.165a2.83 2.83 0 0 1-.447 1.099 2.029 2.029 0 0 1-.912.727c.253-.266.465-.567.63-.894a4.01 4.01 0 0 0 .318-1.014c.068-.357.113-.718.137-1.081a7.26 7.26 0 0 1 .122-1.129Zm-2.233 1.185c-.058.085-.017.196-.013.298.013.104.021.21.027.318a2.307 2.307 0 0 1-.724 1.804c-.322.3-.7.532-1.112.685a4.08 4.08 0 0 1-1.248.264c.381-.19.756-.363 1.11-.56.347-.189.67-.421.959-.69.283-.263.503-.586.645-.946a3.45 3.45 0 0 0 .165-.574l.061-.306c.029-.097.031-.228.13-.293Zm-4.745 1.685a2.818 2.818 0 0 1-.37.777c-.158.24-.338.463-.539.666a3.53 3.53 0 0 1-1.438.92c.183-.23.378-.424.568-.626l.572-.587c.39-.386.765-.776 1.207-1.15ZM46.309 82.867a10.193 10.193 0 0 1-1.174-.62 30.913 30.913 0 0 0-1.168-.625 29.313 29.313 0 0 0-2.394-1.12 26.456 26.456 0 0 0-7.632-1.938 27.59 27.59 0 0 0-2.631-.085c-.88.016-1.758.087-2.63.21-.875.117-1.745.277-2.605.48a19.944 19.944 0 0 1 5.223-1.012 21.647 21.647 0 0 1 5.328.387c1.747.368 3.448.927 5.074 1.665.808.374 1.596.785 2.364 1.235.382.228.758.464 1.128.709l.552.368c.176.135.365.25.565.346Z" fill="#B2B7DC"/><path d="M25.727 82.867a5.812 5.812 0 0 1 1.076-2.002 6.824 6.824 0 0 1 3.849-2.39 7.28 7.28 0 0 1 1.13-.171c.38-.018.76-.006 1.136.009-.373.08-.745.108-1.108.194-.362.076-.72.17-1.073.283l-.523.175-.505.218a3.98 3.98 0 0 0-.49.242 4.05 4.05 0 0 0-.475.272 8.134 8.134 0 0 0-1.696 1.383 8.817 8.817 0 0 0-1.321 1.787Zm3.978 1.046a6.28 6.28 0 0 1 .323-2.117 5.622 5.622 0 0 1 1.052-1.905 4.056 4.056 0 0 1 1.813-1.223 4.611 4.611 0 0 1 2.139-.178 6.552 6.552 0 0 0-2.02.483 4.355 4.355 0 0 0-1.617 1.192 6.697 6.697 0 0 0-1.062 1.744 10.877 10.877 0 0 0-.628 2.004Zm4.385.489c.077-.042.063-.146.072-.224.005-.084.007-.17.007-.255l.001-.515c.009-.348.046-.695.112-1.037a3.93 3.93 0 0 1 .918-1.912 3.498 3.498 0 0 1 1.859-1.029 5.282 5.282 0 0 1 2.075-.017 8.528 8.528 0 0 0-1.99.333 3.64 3.64 0 0 0-1.636.997 4.222 4.222 0 0 0-.91 1.705c-.092.323-.167.65-.225.982l-.094.504a4.41 4.41 0 0 1-.054.254c-.029.075-.044.19-.135.214Zm2.522-10.326c-.08.423-.148.837-.2 1.248a8.328 8.328 0 0 0-.067 1.225c.01.402.07.802.176 1.19.128.393.31.767.54 1.112a2.469 2.469 0 0 1-.846-.995 3.517 3.517 0 0 1-.289-1.296 4.64 4.64 0 0 1 .167-1.3c.109-.42.284-.82.519-1.184Zm3.975 1.325c-.071.308-.229.574-.285.87-.077.284-.11.577-.099.87.031.577.229 1.133.568 1.602.163.245.345.476.545.691.21.21.425.42.648.622.237.185.459.394.703.578.243.183.49.364.73.565-.286-.119-.56-.262-.843-.394-.274-.145-.53-.324-.793-.494a9.229 9.229 0 0 1-.727-.6 5.303 5.303 0 0 1-.61-.737 2.941 2.941 0 0 1-.545-1.84 2.62 2.62 0 0 1 .232-.932c.143-.276.302-.543.477-.8Zm-30 2.898c1.2-.37 2.398-.743 3.59-1.134 1.195-.382 2.388-.767 3.576-1.173 2.368-.814 4.753-1.61 7.025-2.64 1.128-.501 2.234-1.13 3.393-1.628a33.012 33.012 0 0 1 3.533-1.347c2.397-.745 4.914-1.303 7.431-1.115a17 17 0 0 0-3.724.407 28.697 28.697 0 0 0-3.605 1.013 41.508 41.508 0 0 0-3.478 1.388c-1.143.505-2.217 1.134-3.377 1.662-1.156.515-2.335.955-3.52 1.376a80.187 80.187 0 0 1-3.58 1.188c-2.403.737-4.818 1.43-7.264 2.003Z" fill="#B2B7DC"/><path d="M13.308 74.704a4.218 4.218 0 0 0 1.862 1.395c.089.036.18.064.273.084.092.029.185.049.28.06l.286.047c.097.001.194.006.292.013.197.022.393-.012.596-.01.201-.014.401-.048.614-.056a4.797 4.797 0 0 1-.574.258c-.202.065-.41.11-.622.134a2.817 2.817 0 0 1-1.284-.135 2.743 2.743 0 0 1-1.086-.704 2.576 2.576 0 0 1-.637-1.086Zm3.209-3.976c.271.513.572 1.01.901 1.487.32.469.686.906 1.091 1.303.405.387.867.708 1.372.951.526.226 1.087.36 1.659.4a3.473 3.473 0 0 1-1.779-.096 4.394 4.394 0 0 1-1.54-.953 6.055 6.055 0 0 1-1.079-1.434 5.973 5.973 0 0 1-.625-1.658Zm5.373-3.174c.213.57.45 1.123.693 1.667.24.541.521 1.064.84 1.563.303.498.678.95 1.111 1.341.446.388.972.673 1.541.835a3.036 3.036 0 0 1-1.744-.578 4.824 4.824 0 0 1-1.262-1.373 7.487 7.487 0 0 1-.79-1.668 7.626 7.626 0 0 1-.388-1.787Zm4.883-1.287c.332.535.724 1.03 1.169 1.474a7.2 7.2 0 0 0 1.45 1.142 7.344 7.344 0 0 0 1.683.755c.602.184 1.218.321 1.842.412a9.94 9.94 0 0 1-.963.032 5.897 5.897 0 0 1-.963-.127A5.757 5.757 0 0 1 27.7 67.96a4.903 4.903 0 0 1-.927-1.693ZM14.494 80.145a26.52 26.52 0 0 1 1.71-2.084 99.958 99.958 0 0 1 1.813-1.986 6.212 6.212 0 0 1-.66 1.195c-.258.373-.539.73-.84 1.069a10.978 10.978 0 0 1-2.023 1.806Zm5.93-2.035c.44-.672.927-1.277 1.389-1.901.48-.612.915-1.258 1.301-1.933a3.15 3.15 0 0 1-.336 1.16 6.134 6.134 0 0 1-.63 1.024 7.947 7.947 0 0 1-.793.897 5.716 5.716 0 0 1-.93.753Zm6.07-1.647c.264-1.03.661-2.02 1.181-2.948a9.51 9.51 0 0 1 .893-1.33 2.76 2.76 0 0 1 1.277-.963 2.38 2.38 0 0 0-.563.531c-.165.197-.305.414-.451.626a27.77 27.77 0 0 0-.79 1.34c-.51.91-.992 1.835-1.547 2.744Zm55.048-.388a229.93 229.93 0 0 1-7.358 1.763 282.88 282.88 0 0 1-7.409 1.547c-1.24.232-2.485.446-3.733.642-.627.087-1.25.192-1.885.249-.637.073-1.245.111-1.866.215a21.347 21.347 0 0 0-3.636.932 27.632 27.632 0 0 0-3.486 1.444 23.01 23.01 0 0 1 7.065-2.694c.62-.126 1.27-.185 1.885-.257.62-.062 1.242-.171 1.86-.265a127.35 127.35 0 0 0 3.715-.677c2.478-.453 4.947-.963 7.42-1.449l3.71-.736 3.718-.714Z" fill="#B2B7DC"/><path d="M64.448 85.867a33.398 33.398 0 0 0-1.29-1.885 15.69 15.69 0 0 0-1.454-1.722 6.663 6.663 0 0 0-1.761-1.332 3.265 3.265 0 0 0-2.17-.273 2.893 2.893 0 0 1 2.3-.027A5.75 5.75 0 0 1 62 81.966c.542.556 1.02 1.171 1.428 1.833.41.652.751 1.345 1.02 2.068Zm5.268-.767a6.37 6.37 0 0 0-.233-1.207c-.047-.197-.125-.385-.186-.577-.081-.184-.154-.372-.24-.553a4.752 4.752 0 0 0-1.513-1.794 4.87 4.87 0 0 0-1.044-.553 6.342 6.342 0 0 0-1.146-.346c-.394-.085-.8-.107-1.205-.17-.407-.016-.818-.018-1.235-.045.407-.067.822-.107 1.237-.16.42-.005.839.013 1.256.053a5.48 5.48 0 0 1 2.38.88 4.53 4.53 0 0 1 1.567 2.001c.317.783.441 1.63.362 2.47Zm5.896-2.232a11.997 11.997 0 0 0-.603-1.753 6.165 6.165 0 0 0-.93-1.537 3.473 3.473 0 0 0-1.43-.992 4.774 4.774 0 0 0-1.805-.217 3.47 3.47 0 0 1 1.898-.096 3.283 3.283 0 0 1 1.652 1.031c.413.5.725 1.076.918 1.695.2.602.302 1.234.3 1.869Zm4.28-2.722c-.3-.356-.564-.727-.863-1.063a6.68 6.68 0 0 0-.956-.916 3.808 3.808 0 0 0-1.136-.618 3.953 3.953 0 0 0-1.325-.177 2.464 2.464 0 0 1 1.405-.14c.478.095.927.302 1.31.603a4.808 4.808 0 0 1 1.565 2.31ZM63.9 76.463a4.904 4.904 0 0 1-.495 1.156 7.134 7.134 0 0 1-.71 1.039 5.82 5.82 0 0 1-.901.888c-.33.267-.708.471-1.113.6.312-.266.61-.547.894-.843.278-.291.54-.6.797-.912.519-.622 1.005-1.273 1.528-1.928Zm6.618-1.58c.099.4.14.81.125 1.222a3.268 3.268 0 0 1-.303 1.218 2.723 2.723 0 0 1-.788.989 2.759 2.759 0 0 1-1.109.54c.318-.234.615-.495.887-.78.26-.273.473-.588.632-.93.163-.344.283-.706.358-1.08.088-.378.108-.773.198-1.179Zm7.117-1.923c-.13.495-.248.99-.422 1.475a7.95 7.95 0 0 1-.64 1.412 4.74 4.74 0 0 1-.992 1.219 2.393 2.393 0 0 1-1.426.615c.46-.19.87-.482 1.202-.853.327-.365.614-.765.856-1.192.255-.424.475-.873.698-1.325.211-.466.453-.917.724-1.352Zm-19.863-.881c1.291.134 2.557.332 3.827.497.634.085 1.269.167 1.905.233.636.06 1.272.125 1.921.15a11.702 11.702 0 0 1-3.881.03 17.866 17.866 0 0 1-3.772-.91Zm6.128-1.727c.532.1 1.059.23 1.577.39a18.29 18.29 0 0 0 1.557.343c.521.092 1.048.15 1.577.172.536.018 1.074.007 1.61-.035a5.332 5.332 0 0 1-1.605.362 6.887 6.887 0 0 1-1.653-.088 8.459 8.459 0 0 1-2.337-.779c-.244-.121-.476-.268-.726-.365Zm3.16-14.207a17.7 17.7 0 0 0 .082-1.927 13.309 13.309 0 0 0-.16-1.91 6.543 6.543 0 0 0-.52-1.818 3.469 3.469 0 0 0-1.136-1.418l-.627-.434.751.11a39.636 39.636 0 0 1 8.949 2.434 29.497 29.497 0 0 1 4.15 2.085 19.943 19.943 0 0 1 3.626 2.878 24.416 24.416 0 0 0-3.755-2.66 37.317 37.317 0 0 0-4.158-1.956 47.07 47.07 0 0 0-4.371-1.431 40.642 40.642 0 0 0-4.487-.997l.124-.324c.54.411.957.963 1.204 1.595.25.608.41 1.25.476 1.904.076.645.097 1.295.063 1.944a13.86 13.86 0 0 1-.211 1.925Z" fill="#B2B7DC"/><path d="M73.8 55.448a36.064 36.064 0 0 0-.429-1.54 12.1 12.1 0 0 0-.54-1.47c-.41-.948-.999-1.823-1.987-2.285a2.55 2.55 0 0 1 1.452.74c.391.395.703.862.917 1.376.22.5.379 1.025.474 1.563.103.532.14 1.074.113 1.616Zm5.1.975a3.901 3.901 0 0 0-.127-2.051 2.641 2.641 0 0 0-.527-.848 4.41 4.41 0 0 0-.37-.372c-.133-.119-.28-.222-.418-.353a3.5 3.5 0 0 1 .531.182c.172.083.333.186.481.306.311.243.55.565.693.933a2.41 2.41 0 0 1-.262 2.203Zm-4.357-9.825a.404.404 0 0 0-.132.182l-.106.208c-.07.14-.148.278-.234.413a3.752 3.752 0 0 1-.628.725 4.993 4.993 0 0 1-1.659.956 8.304 8.304 0 0 1-3.734.343 18.515 18.515 0 0 0 3.594-.737 6.163 6.163 0 0 0 1.593-.814 4.76 4.76 0 0 0 .673-.6 4.6 4.6 0 0 0 .303-.346c.1-.112.178-.268.33-.33Zm5.743 3.555c.052.24.023.49-.082.711-.11.225-.27.422-.466.577a3.17 3.17 0 0 1-1.329.579c-.93.162-1.884.12-2.796-.123.467-.06.924-.07 1.378-.117.448-.032.894-.09 1.335-.172a3.944 3.944 0 0 0 1.222-.432 1.45 1.45 0 0 0 .738-1.023Zm-61.884 1.799c2.326.441 4.634.97 6.935 1.526 2.3.558 4.584 1.184 6.861 1.83 2.27.675 4.534 1.377 6.76 2.19a46.343 46.343 0 0 1 6.513 2.833l-1.626-.71-1.652-.64a79.3 79.3 0 0 0-3.341-1.177 151.395 151.395 0 0 0-6.771-2.093c-2.264-.679-4.545-1.299-6.826-1.92l-6.853-1.839Z" fill="#B2B7DC"/><path d="M36.192 64.1c.306-.659.683-1.282 1.123-1.859.434-.587.93-1.126 1.48-1.607a6.984 6.984 0 0 1 1.848-1.192 4.275 4.275 0 0 1 2.151-.334 5.776 5.776 0 0 0-2.01.629c-.152.087-.304.174-.457.258l-.433.298c-.148.093-.281.21-.42.317a4.82 4.82 0 0 0-.404.338 15.86 15.86 0 0 0-1.503 1.498c-.47.535-.935 1.08-1.375 1.653Zm4.238-10.676c.038.924.127 1.845.266 2.76.07.445.183.884.339 1.308.162.428.391.828.68 1.184a2.608 2.608 0 0 1-.977-1.047 4.496 4.496 0 0 1-.454-1.372 6.411 6.411 0 0 1-.083-1.429c.018-.476.095-.947.23-1.404Zm-3.37 3.598a6.632 6.632 0 0 0-3.327 1.07c-.497.317-.967.675-1.406 1.069-.222.197-.443.4-.661.606l-.334.308c-.115.092-.217.234-.373.256.073-.012.11-.094.156-.147L31.25 60l.264-.37c.183-.245.379-.48.586-.704a7.05 7.05 0 0 1 1.411-1.19 5.301 5.301 0 0 1 1.716-.713 4.24 4.24 0 0 1 1.835-.002Zm-12.799.728c.204-.532.49-1.027.85-1.468a5.45 5.45 0 0 1 1.273-1.159 3.95 3.95 0 0 1 1.638-.579 3.377 3.377 0 0 1 1.683.269 5.134 5.134 0 0 0-1.632.054c-.52.12-1.015.326-1.466.61a7.656 7.656 0 0 0-1.253 1.023c-.391.392-.756.81-1.093 1.25Zm.599-9.349c.226.748.551 1.461.967 2.122.408.657.882 1.27 1.413 1.832.277.27.54.553.843.795.283.266.6.49.907.729.307.238.644.438.963.666.328.215.674.4 1.006.621-.37-.134-.739-.284-1.104-.441a11.925 11.925 0 0 1-1.047-.576 10.008 10.008 0 0 1-1.87-1.505 8.73 8.73 0 0 1-1.395-1.96 5.962 5.962 0 0 1-.683-2.283Zm7.508 3.382c.977.902 1.881 1.855 2.801 2.794.455.474.916.94 1.379 1.404.469.457.927.926 1.44 1.349a8.124 8.124 0 0 1-1.66-1.107 18.027 18.027 0 0 1-1.459-1.355 21.09 21.09 0 0 1-2.5-3.085Zm-11.944 2.773a1.315 1.315 0 0 1 .227-.864c.175-.263.42-.471.706-.603.281-.124.585-.187.892-.185.148.006.296.021.443.044.143.035.284.078.422.131-.14.033-.283.058-.426.075l-.407.075a3.72 3.72 0 0 0-.748.24 2.306 2.306 0 0 0-1.109 1.087Z" fill="#B2B7DC"/><path opacity=".6" d="m37.057 71.869-.017.041a.375.375 0 0 0-.025.042c-.473.972-4.852 9.386-15.66 11.973-1.244-.691-2.072-1.528-2.315-2.591 2.683-1.076 15.308-5.966 17.95-9.382a.136.136 0 0 0 .025-.033.427.427 0 0 0 .042-.05Zm40.686-1.754c-.703 1.473-2.859 6.241-6.81 9.054-4.605 3.278-11.513 3.21-13.886 2.302-2.373-.908-3.207-1.465-4.044-.766-.194.16-.432.255-.682.273.082-.264.19-.52.322-.762 1.093-1.913 3.429-2.65 4.86-4.17a.26.26 0 0 1 .034-.017c.766-.28 13.136.28 18.369-6.28.62.083 1.233.205 1.837.366Zm-5.435-27.531c-4.952 12.583-16.56 12.378-17.875 12.169-1.322-.21-1.322.349-1.812.581-.49.233-2.093 2.625-3.001 3.86-.82 1.122-1.185 3.39-1.248 3.796.046-.569.41-4.834.41-6.007 0-1.255-.695-2.164-.904-1.326-.21.837-1.536 6.003-1.536 6.003s-.448-5.296-.544-6.732c.322.901.54 1.637.54 1.637s.305-1.327 0-2.164c-.21-.574-.49-1.11-.737-1.662a3.724 3.724 0 0 0-.544-1.026.335.335 0 0 1 .167-.243 2.917 2.917 0 0 0 1.118-.904 66.682 66.682 0 0 1 1.327-1.465c2.93-5.375-.26-15.09-.26-15.09l-.436-2.118c.155.561.29 1.139.394 1.72 0 0 .15-.301.402-.787l.247.298c2.72 3.21 3.14 13.743 1.884 16.535-1.152 2.559.096 4.466 1.013 4.395a5.486 5.486 0 0 1-.992.42c-1.047.28-.557 2.79-.557 2.79.628-.28 2.859-2.583 2.93-3.407a.316.316 0 0 0-.042-.226c.767-.16 1.543-.275 2.323-.344 8.791-.351 16.184-11.026 16.184-11.026h.624c-.172.378-.247.54-.277.599.156-.253.608-.32 1.202-.276Z" fill="#3B4179"/><path opacity=".6" d="m45.798 54.927.209.59c-2.646 1.256-15.974 3.445-22.978-8.163-.13-.218-.26-.43-.38-.636 1.36-.69 2.628-1.319 2.812-1.319 0 0-.469-.607-1.13-1.645a58.476 58.476 0 0 1 1.733 1.666c.105.21 8.059 6.907 11.93 7.271 3.534.331 5.103-.697 6.225-.878.52.372 1.143 1.892 1.579 3.114Zm-8.226 11.336s-5.564-3.954-11.956-2.448c-6.392 1.505-7.903 3.008-7.903 3.008s11.093-4.746 19.859-.56Zm8.678 18.276-.35 22.747s-3.557-2.863-4.742-3.768a4.61 4.61 0 0 1-1.139-1.364c.21.796.624 1.519.98 2.411.046.113.084.214.121.31.03-.008.067-.021.105-.034 2.303.838 4.814 5.095 4.814 5.095l-.486 13.325h3.626c-.1-.335-.197-2.165-.276-4.337a16.585 16.585 0 0 1-1.344-2.29c-1.654-3.768-.226-6.07-.025-8.897s-.724-8.268-1.143-12.663c-.419-4.396.523-6.07 1.047-8.374.477-2.105-.972-6.84-1.06-8.138-.041 1.332-.104 2.52-.041 3.186.239.92.209 1.888-.087 2.79Z" fill="#3B4179"/><path d="m68.73 123.825-1.151 14.166a20.325 20.325 0 0 1-2.34 7.995l-1.11 2.065c-.203.381-.402.762-.594 1.151a38.809 38.809 0 0 0-1.54 3.583l-3.206 8.711a2.604 2.604 0 0 1-1.172 1.398 14.25 14.25 0 0 1-1.076.544 9.05 9.05 0 0 1-.217.101c-.088.037-.18.079-.277.121-.116.046-.234.096-.355.146-.151.058-.306.121-.466.18-.134.05-.268.096-.41.145a.567.567 0 0 0-.042.016c-.142.047-.288.097-.436.143a30.718 30.718 0 0 1-1.043.306c-.145.037-.3.079-.46.116-.113.029-.23.054-.343.079a24.14 24.14 0 0 1-.95.193l-.607.101a23.652 23.652 0 0 1-4.467.246c-5.618.209-9.515-1.532-11.144-2.441a2.62 2.62 0 0 1-1.176-1.394l-3.206-8.711a36.537 36.537 0 0 0-2.131-4.739l-1.11-2.064a20.406 20.406 0 0 1-2.344-7.992l-1.147-14.17a1.618 1.618 0 0 1 1.612-1.749h41.294a1.619 1.619 0 0 1 1.614 1.754Z" fill="#F4605A"/><path opacity=".8" d="m68.73 123.825-1.151 14.166a20.325 20.325 0 0 1-2.34 7.995l-1.11 2.065c-.203.381-.402.762-.594 1.151a38.809 38.809 0 0 0-1.54 3.583l-3.206 8.711a2.603 2.603 0 0 1-1.172 1.398 13.91 13.91 0 0 1-1.076.544 9.05 9.05 0 0 1-.217.101l-.277.121-.355.146c-.151.058-.306.121-.466.18-.134.05-.268.096-.41.145a.322.322 0 0 0-.042.017c-.142.046-.288.096-.436.142a30.457 30.457 0 0 1-1.043.306c-.145.037-.3.079-.46.116-.113.029-.23.054-.343.08-.306.066-.624.134-.95.192l-.607.101a14.148 14.148 0 0 1-.695.091 2.8 2.8 0 0 0 .745-1.155l3.208-9.269a39.719 39.719 0 0 1 2.13-5.04l1.11-2.197a22.74 22.74 0 0 0 2.344-8.503l1.29-16.937h6.049a1.63 1.63 0 0 1 1.19.522 1.624 1.624 0 0 1 .424 1.228Z" fill="#CC4242"/></svg>