<svg xmlns="http://www.w3.org/2000/svg" width="113" height="167" viewBox="0 0 113 167" fill="none"><path opacity=".5" d="M112.316 62.606a.664.664 0 0 0-.727-.486c-.319.052-.62.18-.879.372a29.283 29.283 0 0 1-9.248 3.727c-1.197.257-2.45.455-3.467 1.136-.986.662-1.65 1.715-2.61 2.413-1.098.8-2.49 1.069-3.694 1.697-1.955 1.022-3.305 2.938-4.19 4.96-.883 2.02-1.373 4.19-2.077 6.28a5.291 5.291 0 0 1-.883 1.776c-.463.545-1.109.898-1.73 1.254-7.693 4.418-13.884 11.441-17.914 19.294a55.497 55.497 0 0 0-1.039 2.148c.952-9.828 2.13-19.72 3.518-27.241.282-.034.558-.06.793-.113 1.243-.282 2.4-.918 3.518-1.508 3.787-1.999 7.596-4.012 10.975-6.641 5.646-4.391 9.863-10.316 13.995-16.154.382-.54.736-1.344.327-1.807a.757.757 0 0 0-.09-.087c-3.336 2.764-7.544 3.916-11.771 5.09.508-2.176.539-6.26 1.59-9.078 1.228-3.297 2.105-6.458 2.467-9.958.216-2.083 3.09-5.114 2.36-7.121-.604-1.66-5.43 2.715-7.24 4.525-1.811 1.81-4.677 5.732-7.543 7.391-2.866 1.659-6.637 9.804-7.527 13.123-.846 3.152-.085 8.872-.007 9.436-.41.353-.818.708-1.224 1.064-1.18 1.029-2.39 2.096-3.082 3.5-1.012 2.049-.76 4.501-.117 6.694.19.534.31 1.09.355 1.655a5.56 5.56 0 0 1-.193 1.342c-1.619 7.1-3.01 14.238-4.11 21.42-.457-10.646-.908-21.318-.483-31.88.167-4.142-.056-8.482-2.092-12.093-1.252-2.22-3.111-4.022-4.945-5.79-4.48-4.324-9.032-8.699-14.487-11.7a8.798 8.798 0 0 0 .62 5.751c.634 1.33 1.592 2.474 2.386 3.715 2.886 4.515 3.49 10.114 5.786 14.956a23.405 23.405 0 0 0 8.916 9.87c1.057.645 1.707.982 2.12 1.467.375.44.556 1.004.67 2.033.397 3.548.447 7.152.554 10.718.173 5.733.273 11.468.339 17.205-.134.989-.263 1.98-.386 2.971a56.954 56.954 0 0 0-3.499-9.776 63.832 63.832 0 0 0-2.271-6.157c-.256-.593-.07-2.076-.169-2.762-.335-2.337-.591-4.885-2.56-6.453a44.06 44.06 0 0 0-4.223-3.055c-.892-4.018-6.721-8.642-6.523-10.855.184-2.053-1.701-3.841-2.615-5.734-1.914-3.97-5.081-3.343-7.726-6.35-.704-.8-3.4-5.492-4.749-4.788-1.342.7-.885 6.976-.778 7.696.334 2.246 1.064 5.185 3.147 6.459 2.225 1.36 3.032 6.667 4.413 9.37-3.038-1.286-6.69-4.66-6.977-3.035 0 0 5.43 10.358 7.944 11.264 2.514.906 8.246 3.518 9.955 5.229 1.309 1.309 5.69 2.796 8.345 3.33a50.37 50.37 0 0 1 5.111 11.241 173.207 173.207 0 0 1 2.224 13.536 222.57 222.57 0 0 0-.285 3.724l-.063.982c-2.964-13.792-10.162-18.483-10.162-18.483-.265-8.66-7.271-9.055-10.642-9.055-3.372 0-6.809-1.52-9.055-2.182-1.874-.55-2.963-.64-3.275-.042h-.004l-.003.015a.946.946 0 0 0-.09.425c0 1.057 5.777 2.642 8.396 4.23.33.2 9.584 6.412 10.807 6.907 1.223.496 3.404.827 3.404.827 4.76 2.445 7.403 10.378 8.924 14.74.84 2.412 1.196 7.066 1.345 10.746-.01.441-.018.884-.024 1.326-.004.224-.01.448-.012.672H38.07s-.73 21.206 6.572 29.218c-1.563.293-11.814 1.697-17.056 1.179-6.181-.61-4.553.977-4.553.977h36.224l-.073-.017c.013 0 .025 0 .038-.003l.035-.007a2.159 2.159 0 0 0 .791-.281c8.155-4.882 8.807-23.642 8.812-29.386 0-1.063-.02-1.68-.02-1.68h-6.458a100.99 100.99 0 0 0-.118-7.964c.12-1.621.25-3.3.387-5.024.132-.685.309-1.36.53-2.022 1.734-4.978 4.751-14.028 10.181-16.818 0 0 2.49-.378 3.884-.943 1.395-.566 11.955-7.654 12.331-7.882 2.987-1.812 9.579-3.62 9.579-4.827a.871.871 0 0 0-.32-.747l-.007-.022-.015.004c-.534-.373-1.7-.218-3.505.312-2.564.755-6.486 2.49-10.332 2.49-3.846 0-11.841.452-12.143 10.332 0 0-5.857 3.816-9.716 14.48l.191-2.187a50.327 50.327 0 0 1 2.461-7.203 41.809 41.809 0 0 1 5.715-9.575 37.859 37.859 0 0 1 6.146-6.09 39.788 39.788 0 0 1 5.097-3.382c1.241-.697 3.238-2.177 4.561-2.018 1.78.216 3.545.878 5.337.332 1.278-.389 2.308-1.319 3.302-2.212 3.236-2.908 6.577-5.715 9.512-8.926 2.935-3.211 5.476-6.873 6.811-11.014a.933.933 0 0 0 .065-.412Zm-59.114 31.91c.063-.001.122-.005.173-.012.23-.03.579.661.999 1.896a42.81 42.81 0 0 0-1.172-1.883Zm7.956 15.564-.006-.172c.435-4.174.99-8.328 1.595-12.436.79-5.368 1.803-10.698 2.794-16.031.035-.293.127-.576.272-.832.144-.21.349-.37.587-.459-1.766 8.58-3.943 20.007-5.242 29.93Z" fill="#A8E5D9"/><path d="M26.153 27.819c3.504 5.481 4.236 12.279 7.024 18.157A28.416 28.416 0 0 0 44.002 57.96c1.283.783 2.072 1.19 2.574 1.78.455.535.675 1.22.814 2.468.481 4.31.542 8.684.672 13.013.456 15.124.514 30.262.556 45.391.01 3.802.016 7.603.016 11.405h1.903c-.032-7.285-.443-14.609-.61-21.802-.45-19.255-2.066-38.764-1.292-57.973.203-5.03-.068-10.299-2.54-14.683-1.52-2.694-3.777-4.882-6.003-7.03-5.44-5.249-10.965-10.56-17.59-14.204a10.684 10.684 0 0 0 .753 6.983c.77 1.615 1.934 3.003 2.898 4.51Z" fill="#D23748"/><path d="M46.962 132.017h3.079c1.495-23.098 5.425-74.32 11.347-83.203 1.282 0 16.664-8.608 17.291-11.24.627-2.633.656-7.623 1.938-11.062 1.492-4.002 2.557-7.84 2.997-12.089.261-2.529 3.75-6.208 2.863-8.645-.732-2.015-6.593 3.296-8.79 5.493-2.198 2.198-5.677 6.96-9.157 8.973-3.48 2.014-8.058 11.904-9.137 15.933-1.08 4.029 0 11.517 0 11.517s-9.558 41.218-10.994 63.93a1259.845 1259.845 0 0 1-1.437 20.393Z" fill="#D23748"/><path d="m47.103 114.192-.124 17.825h3.983c.737-14.689-.415-45.102-20.218-61.288 0 0 2.898-.374 1.815-5.254-1.082-4.88-8.16-10.493-7.92-13.18.223-2.492-2.066-4.664-3.174-6.961-2.324-4.82-6.17-4.059-9.382-7.709-.855-.972-4.129-6.669-5.765-5.814-1.63.85-1.075 8.47-.945 9.344.405 2.727 1.29 6.295 3.821 7.842 3.297 2.014 4.03 11.17 6.593 13.002 2.564 1.831 12.087 9.34 14.1 9.523 2.013.183 17.4 16.482 17.216 42.67Z" fill="#D23748"/><path d="M104.706 44.71a35.503 35.503 0 0 1-6.18 1.933c-1.453.312-2.972.552-4.208 1.38-1.197.802-2.003 2.081-3.168 2.93-1.334.97-3.024 1.296-4.486 2.06-2.374 1.24-4.013 3.566-5.086 6.02-1.074 2.454-1.668 5.087-2.523 7.626a6.432 6.432 0 0 1-1.072 2.154c-.562.664-1.346 1.091-2.1 1.524-9.34 5.365-16.856 13.89-21.75 23.425-4.088 7.968-6.497 16.739-7.561 25.612a83.693 83.693 0 0 0-.583 12.642h3.916c-.427-6.798-.303-13.648.674-20.392a66.21 66.21 0 0 1 4.614-16.8 50.757 50.757 0 0 1 6.938-11.625 45.962 45.962 0 0 1 7.462-7.395 48.326 48.326 0 0 1 6.188-4.107c1.507-.846 3.931-2.643 5.538-2.45 2.16.263 4.304 1.067 6.48.404 1.551-.472 2.802-1.602 4.008-2.686 3.928-3.53 7.985-6.939 11.549-10.837 3.563-3.898 6.648-8.345 8.269-13.372.063-.159.091-.33.08-.501-.055-.387-.494-.62-.883-.59a2.462 2.462 0 0 0-1.068.45 35.477 35.477 0 0 1-5.048 2.595Z" fill="#D23748"/><path d="M33.528 95.474c5.778 2.97 8.988 12.6 10.834 17.896 1.574 4.516 1.747 15.504 1.764 18.647h1.824c.04-28.855-13.86-37.907-13.86-37.907-.321-10.513-8.828-10.995-12.92-10.995-4.093 0-8.267-1.846-10.995-2.648-2.729-.803-4.093-.803-4.093.481s7.013 3.208 10.192 5.136c.4.243 11.636 7.785 13.121 8.387 1.485.602 4.133 1.003 4.133 1.003Z" fill="#D23748"/><path d="M91.056 73.079c-3.114.915-7.875 3.021-12.546 3.021-4.67 0-14.376.55-14.742 12.546 0 0-15.9 10.355-15.813 43.372h2.079c.016-3.418.197-16.185 2.014-21.396 2.106-6.044 5.768-17.032 12.36-20.42 0 0 3.023-.458 4.717-1.145 1.694-.688 14.514-9.292 14.97-9.569 3.628-2.2 11.63-4.395 11.63-5.86 0-1.465-1.556-1.465-4.67-.55Z" fill="#DB616E"/><path d="M40.145 80.984c1.796-.24 9.699 36.049 7.235 51.033h1.949c.13-5.046.36-31.514-8.33-51.644-.31-.72-.085-2.521-.204-3.354-.408-2.837-.718-5.931-3.11-7.836-3.12-2.483-6.584-5.065-10.472-6.152-3.97-1.11-8.194-1.052-12.096-2.437-3.785-1.343-8.668-5.982-9.034-3.907 0 0 6.593 12.576 9.645 13.674 3.052 1.1 10.011 4.273 12.086 6.349 2.076 2.075 10.5 4.518 12.33 4.274Z" fill="#DB616E"/><path d="M93.088 31.46a.963.963 0 0 0-.111-.106c-6.804 5.64-16.602 5.75-24.478 9.759-3.923 1.997-7.284 4.92-10.601 7.813-1.432 1.249-2.9 2.544-3.742 4.248-1.227 2.488-.922 5.466-.141 8.127.231.648.376 1.324.43 2.01a6.759 6.759 0 0 1-.233 1.629c-3.79 16.616-6.566 33.399-7.708 50.416-.371 5.543-.6 11.104-.547 16.66h3.142c-1.602-15.732.133-31.852 2.423-47.43.96-6.519 2.19-12.988 3.393-19.464a2.69 2.69 0 0 1 .33-1.009c.58-.879 1.961-.749 2.86-.953 1.509-.343 2.914-1.115 4.27-1.831 4.598-2.427 9.222-4.871 13.325-8.063 6.852-5.332 11.975-12.525 16.99-19.612.465-.655.896-1.632.398-2.194Z" fill="#DB616E"/><path d="M65.642 128.842h-37.36s-1.058 30.693 10.675 37.719c.41.245.88.373 1.359.373h13.292c.479 0 .948-.128 1.36-.373 11.732-7.026 10.674-37.719 10.674-37.719Z" fill="#2AC0A4"/><path d="M54.969 166.561c-.411.244-.88.373-1.359.373h-6.032c.478.001.948-.128 1.358-.373 11.736-7.026 10.677-37.719 10.677-37.719h6.029s1.058 30.693-10.673 37.719Z" fill="#188BB8"/><path d="M6.194 80.414a55.765 55.765 0 0 1 7.712 1.837c1.26.404 2.498.87 3.743 1.313 1.24.452 2.481.903 3.715 1.384a39.39 39.39 0 0 1 3.634 1.6c.596.29 1.175.614 1.758.932.573.337 1.14.681 1.687 1.06a18.748 18.748 0 0 1 3.07 2.543 9.89 9.89 0 0 1 2.169 3.323l-.034.014a10.953 10.953 0 0 0-2.339-3.136 22.529 22.529 0 0 0-3.076-2.431 47.948 47.948 0 0 0-6.947-3.72 40.817 40.817 0 0 0-3.68-1.45c-1.246-.432-2.52-.784-3.788-1.142a284.37 284.37 0 0 0-7.631-2.091l.007-.036Zm.91-23.774c.26.838.65 1.63 1.156 2.348.13.175.248.36.387.528l.42.502a12.811 12.811 0 0 0 1.96 1.72l.554.348c.181.121.37.23.565.328.39.193.768.413 1.177.568l.603.255c.202.081.414.14.62.21.821.297 1.682.513 2.528.758l2.553.705c1.7.476 3.395.98 5.059 1.582a30.777 30.777 0 0 1 4.82 2.23c.746.48 1.528.91 2.228 1.458.358.263.718.523 1.069.797l1.004.875a28.67 28.67 0 0 1 6.432 8.394l-.031.017-1.434-2.222-1.578-2.114-.86-.998c-.294-.326-.555-.681-.88-.978l-.929-.93c-.156-.154-.303-.317-.468-.463l-.498-.429-.995-.858-1.053-.788c-.683-.551-1.449-.984-2.179-1.47a36.384 36.384 0 0 0-4.718-2.338 41.306 41.306 0 0 0-5.02-1.646c-1.704-.463-3.437-.783-5.141-1.299a12.137 12.137 0 0 1-4.636-2.595 9.472 9.472 0 0 1-1.717-2.044 7.647 7.647 0 0 1-1.034-2.445l.036-.007Zm15.089 5.429a22.001 22.001 0 0 0-1.23-3.955 38.723 38.723 0 0 0-1.894-3.978 35.811 35.811 0 0 0-2.33-3.743 23.36 23.36 0 0 0-2.83-3.382 15.28 15.28 0 0 0-1.67-1.443c-.618-.39-1.202-.83-1.744-1.318-1.044-1.018-1.722-2.34-2.257-3.682-1.065-2.703-1.6-5.6-1.9-8.505H6.3c.015 1.47.157 2.935.425 4.38a20.384 20.384 0 0 0 1.23 4.242 11.257 11.257 0 0 0 2.45 3.655c.558.478 1.144.922 1.755 1.33a8.5 8.5 0 0 1 .831.706c.279.234.52.513.773.773 1.978 2.143 3.546 4.626 4.97 7.164.696 1.282 1.374 2.579 1.964 3.912a26.976 26.976 0 0 1 1.436 3.835l.058.009Zm.237-45.064c.106.231.234.451.383.657.141.216.288.43.436.641l.905 1.26c.61.837 1.24 1.657 1.872 2.475a98.294 98.294 0 0 0 3.948 4.78 41.265 41.265 0 0 0 2.119 2.26c.365.364.748.71 1.137 1.05.41.318.804.657 1.18 1.016 1.461 1.486 2.645 3.204 3.777 4.94a62 62 0 0 1 3.098 5.4 71.547 71.547 0 0 1 2.614 5.651 55.421 55.421 0 0 1 2.072 5.873c.55 1.997 1.04 4.048 1.01 6.133h-.037a16.5 16.5 0 0 0-.432-3.063c-.224-1.01-.511-2-.814-2.987-.62-1.97-1.358-3.902-2.148-5.81a88.945 88.945 0 0 0-5.533-11.087 35.309 35.309 0 0 0-1.7-2.593 17.174 17.174 0 0 0-1.995-2.363 13.926 13.926 0 0 0-1.188-.992 23.05 23.05 0 0 1-1.181-1.018 37.819 37.819 0 0 1-2.204-2.203c-1.405-1.53-2.7-3.155-3.947-4.813a71.927 71.927 0 0 1-1.804-2.535 37.316 37.316 0 0 1-1.258-1.967 8.589 8.589 0 0 1-.191-.34 1.34 1.34 0 0 1-.154-.368l.036.003Zm70.563 14.611a8.73 8.73 0 0 1-.93 1.298c-.343.408-.704.8-1.086 1.172a25.86 25.86 0 0 1-2.413 2.092 42.75 42.75 0 0 1-5.349 3.474c-1.874 1.007-3.8 1.907-5.741 2.764-.973.427-1.925.89-2.883 1.342-.477.229-.937.494-1.403.745-.46.261-.939.491-1.385.777-.9.557-1.813 1.093-2.678 1.703-.434.3-.884.58-1.305.9l-1.272.947c-.432.305-.822.662-1.235.992-.408.336-.821.665-1.204 1.029l-1.173 1.063-1.125 1.114a37.293 37.293 0 0 0-4.02 4.88 22.537 22.537 0 0 0-2.865 5.632l-.035-.01a20.646 20.646 0 0 1 2.66-5.78 32.97 32.97 0 0 1 3.989-4.985 43.153 43.153 0 0 1 10.165-7.658c.455-.275.941-.493 1.41-.743.476-.236.94-.494 1.42-.721l2.887-1.343 1.441-.671c.48-.226.944-.482 1.416-.722.948-.473 1.863-1.007 2.789-1.519a54.978 54.978 0 0 0 5.327-3.433 29.246 29.246 0 0 0 2.45-2.008c.792-.7 1.502-1.487 2.117-2.347l.031.016ZM85.884 5.598c-2.689 3.04-5.264 6.171-7.776 9.354-1.26 1.59-2.52 3.183-3.682 4.842a74.66 74.66 0 0 0-3.318 5.102 105.672 105.672 0 0 0-2.93 5.322 70.144 70.144 0 0 0-2.476 5.538 39.964 39.964 0 0 0-1.762 5.79 28.323 28.323 0 0 0-.458 2.758 9.51 9.51 0 0 0-.201.154c.064-.996.192-1.986.381-2.966.386-2.004.951-3.97 1.689-5.872a60.475 60.475 0 0 1 5.59-10.83c1.087-1.714 2.234-3.392 3.38-5.07 1.158-1.666 2.323-3.332 3.55-4.951a99 99 0 0 1 3.846-4.729C83.05 8.506 84.412 7 85.859 5.572l.025.026Zm24.941 36.304c.011.002.021.01.027.02.006.01.009.02.006.032a.324.324 0 0 1-.014.043.836.836 0 0 1-.042.072c-.03.045-.063.088-.096.13a5.017 5.017 0 0 1-.208.242c-.144.157-.292.31-.441.46-.3.3-.604.597-.917.883a58.048 58.048 0 0 1-1.907 1.684c-1.299 1.09-2.627 2.149-4.016 3.125a27.219 27.219 0 0 1-4.39 2.578c-.402.158-.8.278-1.18.464-.379.186-.751.382-1.117.591-.737.415-1.444.878-2.144 1.35a79.415 79.415 0 0 0-7.96 6.26 58.702 58.702 0 0 0-1.838 1.738 30.563 30.563 0 0 0-1.736 1.836 18.994 18.994 0 0 0-1.55 1.991 7.928 7.928 0 0 0-1.103 2.258l-.036-.008a7.658 7.658 0 0 1 .982-2.349c.445-.727.942-1.42 1.488-2.075a35.237 35.237 0 0 1 3.539-3.67 55.325 55.325 0 0 1 3.921-3.248 55.887 55.887 0 0 1 4.183-2.899c.716-.455 1.451-.88 2.191-1.295.371-.206.75-.4 1.133-.582.384-.182.794-.323 1.178-.479a14.221 14.221 0 0 0 2.197-1.243 46.454 46.454 0 0 0 2.066-1.465 116.14 116.14 0 0 0 4.014-3.095c.655-.533 1.316-1.061 1.958-1.61l.959-.83c.158-.14.314-.283.465-.43a6.71 6.71 0 0 0 .223-.223 1.89 1.89 0 0 0 .103-.118c.029-.031.069-.104.056-.102l.006-.036ZM95.341 72.729a417.616 417.616 0 0 1-8.154 3.036c-1.364.489-2.74.955-4.08 1.507-.675.265-1.333.567-1.998.858l-1.991.88c-2.646 1.186-5.288 2.383-7.765 3.863a29.07 29.07 0 0 0-1.81 1.178c-.593.409-1.16.853-1.697 1.331a10.86 10.86 0 0 0-2.666 3.361l-.034-.014a10.006 10.006 0 0 1 2.506-3.558 20.332 20.332 0 0 1 3.505-2.621 37.242 37.242 0 0 1 3.867-2.031 72.319 72.319 0 0 1 4.016-1.694c1.351-.53 2.688-1.086 4.019-1.67 1.338-.562 2.67-1.141 4.021-1.674a104.999 104.999 0 0 1 8.249-2.787l.012.035Z" fill="#F9B4B9"/></svg>