<svg width="609" height="132" viewBox="0 0 609 132" fill="none" xmlns="http://www.w3.org/2000/svg" xmlns:xlink="http://www.w3.org/1999/xlink" class="footerbar__illust type-desktop"><path fill-rule="evenodd" clip-rule="evenodd" d="M253.997 22.163c2.966 0 4.044-3.55 5.729-5.498 1.206-1.394 3.263-.979 3.872-2.93 1.531-4.908-2.567-8.362-7.914-8.362-5.347 0-8.952 3.03-9.731 7.583-.778 4.554 2.697 9.207 8.044 9.207Z" fill="#191847"/><path fill-rule="evenodd" clip-rule="evenodd" d="M257.354 21.524c1.68 1.013 3.331 1.502 4.106 1.303 1.943-.501 2.122-7.61.618-10.413s-9.234-4.024-9.623 1.529c-.136 1.927.674 3.647 1.87 5.05l-2.144 9.993h6.227l-1.054-7.462Z" fill="#B28B67"/><path fill-rule="evenodd" clip-rule="evenodd" d="M252.86 10.044c-4.77 4.67.018 9.635 1.33 9.635.085-.674.343-1.33.722-1.954a1.52 1.52 0 0 1-.321-.935c0-.86.716-1.557 1.598-1.557.275 0 .535.068.761.188 1.912-1.631 4.311-2.768 5.502-2.991 2.071-.39-4.822-7.057-9.592-2.386Z" fill="#191847"/><path fill-rule="evenodd" clip-rule="evenodd" d="m250.105 50.523 9.764 31.922 4.73 27.148h3.709l-4.998-59.07h-13.205Z" fill="#997659"/><path fill-rule="evenodd" clip-rule="evenodd" d="M246.612 50.523c.663 17.527-.118 26.568-.266 28.16-.148 1.593-2.181 11.918-6.993 31.445l3.952-1.357c7.605-17.91 10.196-27.217 11.068-29.569.873-2.351 3.189-11.911 6.95-28.68h-14.711Z" fill="#B28B67"/><path fill-rule="evenodd" clip-rule="evenodd" d="M240.168 108.49c-.315-.136-.687.003-.803.326-.185.519-.418 1.253-.418 1.674 0 .702.234 2.049.234 2.049h14.635s.571-1.886-.658-2.036c-1.23-.151-2.042-.272-2.042-.272l-6.772-3.019a.293.293 0 0 0-.389.156l-.425 1.029s-1.137.531-1.849.531c-.413 0-1.051-.238-1.513-.438Zm24.391 0c-.314-.136-.687.003-.803.326-.185.519-.418 1.253-.418 1.674 0 .702.234 2.049.234 2.049h14.635s.571-1.886-.658-2.036a89.494 89.494 0 0 1-2.042-.272l-6.771-3.019a.293.293 0 0 0-.39.156l-.424 1.029s-1.138.531-1.85.531c-.413 0-1.05-.238-1.513-.438Z" fill="#E4E4E4"/><path fill-rule="evenodd" clip-rule="evenodd" d="m248.807 50.523 4.152 16.264h12.681l-1.891-16.264h-14.942Z" fill="#69A1AC"/><path fill-rule="evenodd" clip-rule="evenodd" d="M246.472 50.523c-2.049 6.142-.778 16.264-.778 16.264h12.94l3.558-16.264h-15.72Z" fill="#89C5CC"/><path fill-rule="evenodd" clip-rule="evenodd" d="m280.301 53.574-7.35-7.17-2.442 4.223 7.644 4.507c1.916 3.019 3.042 4.324 3.377 3.913.282-.345.153-.724.034-1.073-.093-.272-.18-.526-.061-.732.272-.47 1.806-.201 3.252.117 1.445.317 1.111-.393.803-.763-1.366-1.102-3.118-2.11-5.257-3.022Zm-43.326 10.418c.76-1.543 3.349-16.578 3.349-16.578l5.423.021s-5.022 16.213-5.423 17.205c-.519 1.288.364 3.16.963 4.43.092.197.178.379.251.542-.831.372-1.23-.078-1.651-.551-.475-.536-.978-1.102-2.163-.551-.457.213-.89.464-1.313.71-1.461.85-2.803 1.63-4.628.503-.29-.179-.607-.851.159-1.377 1.91-1.309 4.661-3.6 5.033-4.354Z" fill="#B28B67"/><path fill-rule="evenodd" clip-rule="evenodd" d="m255.734 24.66 2.244-.384c3.863 9.65 10.608 18.419 20.233 26.305l-7.273 8.837c-9.625-11.23-15.558-22.815-15.204-34.757Z" fill="#191847"/><path fill-rule="evenodd" clip-rule="evenodd" d="M245.953 52.858h19.98s-6.943-16.882-6.943-28.683l-6.027-.898c-4.737 7.618-6.074 16.997-7.01 29.581Z" fill="#DDE3E9"/><path fill-rule="evenodd" clip-rule="evenodd" d="m252.835 23.281-.005-.004s-13.774 13.492-15.959 38.144h9.739a62.143 62.143 0 0 1-.151-3.216h13.078s-2.468-23.067-2.699-30.678l-1.456-4.162s-1.445-.064-2.151-.088h-.393l-.003.004Z" fill="#2F3676"/><path fill-rule="evenodd" clip-rule="evenodd" d="M246.461 58.307c-.104-4.605.305-8.93.986-12.844.357 4.644 1.102 10.232 2.658 12.844h-3.644Z" fill="#000" fill-opacity=".1"/><path fill-rule="evenodd" clip-rule="evenodd" d="m249.355 50.263 6.458-3.002v3.002h-6.458Z" fill="#fff" fill-opacity=".2"/><path fill-rule="evenodd" clip-rule="evenodd" d="M351.838 40.466c-1.68 1.013-3.331 1.502-4.106 1.303-1.943-.501-2.122-7.61-.618-10.413 1.503-2.803 9.233-4.025 9.623 1.529.135 1.927-.674 3.647-1.87 5.05l2.144 9.993h-6.228l1.055-7.462Z" fill="#915B3C"/><path fill-rule="evenodd" clip-rule="evenodd" d="M355.346 39.185c.781-3.477 3.008-5.848 2.668-7.402-.34-1.554-1.813-1.933-1.813-1.933s-.762-3.081-4.913-2.621c-4.151.46-6.685 2.184-5.591 5.978 1.006 0 2.22-.364 3.899.26.799.296 1.143 1.839 1.143 1.839h.759s1.105-1.831 2.178-1.346c1.074.485.489 2.358.489 2.358l.373 2.867h.808Z" fill="#191847"/><path fill-rule="evenodd" clip-rule="evenodd" d="M373.866 80.363a4.682 4.682 0 0 1 4.682 4.682v22.811a4.683 4.683 0 0 1-4.682 4.683h-28.78a4.683 4.683 0 0 1-4.682-4.683v-22.81a4.683 4.683 0 0 1 4.682-4.683h28.78Zm-3.754 7.266c.646 0 1.17.524 1.17 1.17v15.304a1.17 1.17 0 0 1-1.17 1.17H348.84a1.17 1.17 0 0 1-1.17-1.17V88.799c0-.646.524-1.17 1.17-1.17h21.272Z" fill="#C5CFD6"/><path fill-rule="evenodd" clip-rule="evenodd" d="M314.674 111.241c5.116-6.247 8.578-10.879 10.385-13.894 3.094-5.164 5.627-9.758 6.426-11.513 1.906-4.185-4.387-6.145-5.812-4.193-2.156 2.955-6.759 12.252-13.812 27.892l2.813 1.708Z" fill="#B28B67"/><path fill-rule="evenodd" clip-rule="evenodd" d="m325.158 109.425 9.521-23.967c2.036-4.369-7.798-7.24-9.294-5.207-3.398 4.616-11.474 22.825-12.486 24.201l12.259 4.973Z" fill="#2F3676"/><path fill-rule="evenodd" clip-rule="evenodd" d="M350.515 104.618c-1.854-2.705-8.6-11.807-12.275-15.573a275.837 275.837 0 0 0-3.06-3.088c-2.896-2.877-8.664 1.958-5.773 4.579 7.2 6.526 17.705 15.336 18.582 16.121 1.23 1.101 3.692-.338 2.526-2.039Z" fill="#915B3C"/><path fill-rule="evenodd" clip-rule="evenodd" d="M349.271 103.563c.204-.275.597-.341.858-.119.42.357.989.876 1.199 1.241.351.608.822 1.891.822 1.891l-12.674 7.318s-1.437-1.348-.448-2.093a90.727 90.727 0 0 0 1.633-1.256l4.354-6a.293.293 0 0 1 .416-.06l.882.679s1.25-.109 1.867-.465c.357-.206.79-.732 1.091-1.136Zm-33.181 6.483c.314-.136.687.004.802.326.186.519.418 1.253.418 1.675 0 .702-.233 2.048-.233 2.048h-14.636s-.57-1.886.659-2.036a82.97 82.97 0 0 0 2.042-.272l6.771-3.018a.293.293 0 0 1 .39.156l.424 1.029s1.138.531 1.849.531c.413 0 1.051-.239 1.514-.439Z" fill="#E4E4E4"/><path fill-rule="evenodd" clip-rule="evenodd" d="M338.105 86.655s11.87-1.933 15.901-2.644c7.661-1.351 9.895-5.474 8.574-14.468h-14.115c-2.802.81-23.414 10.008-23.414 10.008-2.472 1.227-2.011 4.846-1.56 6.038.028.073 12.504 21.426 12.504 21.426l11.546-7.356-9.458-12.137s-.375-.755.022-.867Z" fill="#5C63AB"/><path fill-rule="evenodd" clip-rule="evenodd" d="m328.811 72.225 8.277-6.078 1.829 4.522-8.196 3.4c-2.318 2.722-3.614 3.858-3.889 3.405-.231-.382-.05-.74.116-1.068.13-.257.251-.496.162-.716-.204-.504-1.761-.45-3.236-.337-1.476.113-1.046-.543-.69-.867 1.506-.902 3.382-1.656 5.627-2.261Zm43.406 10.71c-.76-1.544-3.35-16.579-3.35-16.579l-5.422.022s5.022 16.212 5.422 17.204c.52 1.289-.363 3.161-.962 4.43-.093.197-.179.379-.251.542.831.372 1.23-.077 1.651-.551.475-.535.978-1.102 2.162-.551a16.1 16.1 0 0 1 1.313.71c1.461.85 2.803 1.63 4.629.503.289-.179.607-.851-.16-1.376-1.909-1.31-4.66-3.6-5.032-4.355Z" fill="#915B3C"/><path fill-rule="evenodd" clip-rule="evenodd" d="m353.457 43.603-2.243-.385c-8.325 7.192-11.745 21.008-21.949 28.327l2.456 3.044c17.703-2.192 22.091-19.044 21.736-30.986Z" fill="#E87613"/><path fill-rule="evenodd" clip-rule="evenodd" d="M363.239 71.8h-19.854c-.907 0-.736-1.31-.605-1.97 1.514-7.63 7.422-15.853 7.422-26.713l5.726-.898c4.737 7.618 6.375 16.998 7.311 29.581Z" fill="#DDE3E9"/><path fill-rule="evenodd" clip-rule="evenodd" d="M365.471 77.25c.892 2.142 1.767 4.011 2.592 5.448h4.257c.458-14.811-5.149-26.208-9.842-33.08 1.042-.075 1.983-.51 2.577-1.583 2.093-3.777 1.337-5.856-.9-6.54-1.23-.376-2.387-.12-3.771.188-1.133.251-2.419.536-4.022.536h-.002c-.155 0-.297.01-.425.03l-1.901.11s-7.715 26.147-4.255 34.89h15.692Z" fill="#FF9B21"/><path fill-rule="evenodd" clip-rule="evenodd" d="M365.471 77.25c-1.171-2.812-2.371-6.094-3.527-9.483-.43 3.732-1.146 7.481-2.338 9.483h5.865Z" fill="#000" fill-opacity=".1"/><path fill-rule="evenodd" clip-rule="evenodd" d="M405.81 40.466c-1.68 1.013-3.331 1.502-4.106 1.303-1.943-.501-2.122-7.61-.618-10.413 1.503-2.803 9.233-4.025 9.623 1.529.135 1.927-.674 3.647-1.87 5.05l2.144 9.993h-6.228l1.055-7.462Z" fill="#B28B67"/><path fill-rule="evenodd" clip-rule="evenodd" d="M403.545 28.303c.851-.26 2.087-.347 2.606-.288a4.484 4.484 0 0 1-.317-2.265c.093-.747.426-1.383.735-2.049.142-.307.303-.612.544-.847a1.84 1.84 0 0 1 .879-.472c.333-.078.68-.071 1.013-.001.148.03.28.098.424.136.148.038.22-.055.327-.148.259-.224.639-.335.966-.374a2.48 2.48 0 0 1 1.099.131c.341.118.668.309.915.587.11.124.209.265.274.42.027.064.031.102.095.125.059.022.128.023.188.043a2.38 2.38 0 0 1 1.365 1.237c.159.34.235.94.214 1.61-.02.672-.627 2.425-1.194 3.064-.506.57-1.25.947-1.968 1.111.476.545.794 1.226 1.028 1.918.255.752.413 1.534.471 2.33.055.756.061 1.556-.117 2.297-.166.692-.521 1.26-1.113 1.62a5.27 5.27 0 0 1-.857.403c-.289.111-.579.22-.882.283-.574.118-1.235.098-1.677-.359a3.143 3.143 0 0 1-.45-.572c-.042-.073-.067-.12-.016-.19.06-.085.159-.15.237-.216.445-.378.721-.882.79-1.48.071-.609-.092-1.393-.683-1.658-.73-.328-1.533.048-2.181.398-.276-.972-.842-1.848-1.729-2.294-.981-.493-2.107-.551-3.115-.975-.263-.11-.531-.235-.724-.46-.081-.094-.176-.216-.208-.34-.043-.163.063-.3.144-.427.431-.675 2.066-2.038 2.917-2.298Z" fill="#191847"/><path fill-rule="evenodd" clip-rule="evenodd" d="M382.386 88.84c.483 5.279.001 16.624-.259 19.897-.163 2.057-2.967 1.518-3.228-.128-.045-.279-.225-1.259-.495-2.72-1.321-7.169-4.78-25.93-4.786-30.491-.003-2.092 4.654-3.764 6.517-1.238 1.532-1.075 3.706-1.364 5.046.809 1.015 1.645 3.426 6.315 5.998 11.769 2.252 4.777 5.772 16.374 5.772 16.374l-2.988 1.366s-7.382-11.868-12.03-20.19c.155 1.432.308 2.965.453 4.553Z" fill="#B28B67"/><path fill-rule="evenodd" clip-rule="evenodd" d="M396.737 98.819 386.481 74.52c-2.457-3.952-9.346.805-8.508 3.097 1.902 5.205 11.577 22.054 12.144 23.605l6.62-2.404Z" fill="#1F28CF"/><path fill-rule="evenodd" clip-rule="evenodd" d="M373.358 77.295c0 6.887 3.019 23.076 3.021 24.592l7.313-.246s-1.918-21.113-1.617-21.256c.45-.215 18.461 2.493 23.862 2.697 7.79.295 11.012-4.484 11.274-13.552h-15.089s-19.352 2.31-25.438 3.213c-2.606.387-3.326 2.655-3.326 4.552Z" fill="#2B44FF"/><path fill-rule="evenodd" clip-rule="evenodd" d="M396.53 102.287c.273-.208.668-.163.858.122.306.459.709 1.115.811 1.524.17.681.269 2.044.269 2.044l-14.201 3.541s-1.01-1.692.147-2.136c1.156-.443 1.915-.757 1.915-.757l5.84-4.567a.292.292 0 0 1 .416.057l.66.896s1.233.239 1.923.067c.401-.1.962-.485 1.362-.791Zm-14.792 2.31c.315-.136.688.004.803.326.186.519.418 1.253.418 1.675 0 .702-.234 2.048-.234 2.048H368.09s-.571-1.886.659-2.036a82.97 82.97 0 0 0 2.042-.272l6.771-3.018a.292.292 0 0 1 .389.156l.425 1.029s1.138.531 1.849.531c.413 0 1.051-.239 1.513-.439Z" fill="#E4E4E4"/><rect width="13.752" height="1.816" rx=".908" transform="matrix(-1 0 0 1 382.7 108.646)" fill="#2F3676"/><path d="M420.584 73.948a2.926 2.926 0 0 0-2.927-2.926h-27.101a2.926 2.926 0 0 0-2.926 2.926v12.383h31.783a1.17 1.17 0 0 0 1.171-1.17V73.948Z" fill="#2F3676"/><path fill-rule="evenodd" clip-rule="evenodd" d="M390.224 71.022h-.287a2.927 2.927 0 0 0-2.888 2.452l-5.647 34.394h2.773" fill="#2F3676"/><path fill-rule="evenodd" clip-rule="evenodd" d="M382.7 113.057a4.67 4.67 0 1 1-.001-9.34 4.67 4.67 0 0 1 .001 9.34Zm14.79-20.239c0 10.891 8.829 19.721 19.721 19.721 10.891 0 19.72-8.83 19.72-19.721s-8.829-19.72-19.72-19.72c-10.892 0-19.721 8.829-19.721 19.72Zm3.633 0c0 8.885 7.202 16.088 16.088 16.088 8.885 0 16.087-7.203 16.087-16.088 0-8.885-7.202-16.088-16.087-16.088-8.886 0-16.088 7.203-16.088 16.088Z" fill="#191847"/><path fill="#191847" d="M418.248 75.692h-2.076v34.252h2.076z"/><rect width="2.076" height="34.252" rx=".585" transform="scale(-1 1) rotate(45 -299.455 -449.899)" fill="#191847"/><rect width="2.076" height="34.252" rx=".585" transform="matrix(0 1 1 0 400.085 91.78)" fill="#191847"/><rect width="2.076" height="34.252" rx=".585" transform="scale(1 -1) rotate(-45 76.41 -540.211)" fill="#191847"/><path fill-rule="evenodd" clip-rule="evenodd" d="m381.049 39.874 9.836 2.952-2.512 4.184-7.647-4.5c-3.569-.213-5.256-.566-5.06-1.057.166-.415.56-.485.923-.55.283-.05.547-.098.669-.302.28-.465-.7-1.677-1.678-2.787-.979-1.11-.196-1.162.277-1.073 1.627.66 3.357 1.705 5.192 3.133Zm2.428 26.37 8.277-6.077 1.829 4.523-8.196 3.399c-2.318 2.723-3.614 3.858-3.889 3.405-.231-.382-.05-.739.116-1.068.13-.257.251-.496.162-.716-.204-.503-1.761-.45-3.236-.337-1.476.114-1.046-.543-.69-.867 1.506-.902 3.382-1.656 5.627-2.261Z" fill="#B28B67"/><path fill-rule="evenodd" clip-rule="evenodd" d="M404.61 43.799c-4.507 8.404-11.025 14.847-20.474 21.544l3.577 4.034c10.551-3.92 16.119-6.286 18.853-14.227.687-1.992 1.166-8.346 1.578-11.688l-3.534.337Z" fill="#2026A2"/><path fill-rule="evenodd" clip-rule="evenodd" d="M417.211 71.8H397.23s6.789-20.704 6.936-28.42c.005-.263.49-.725.704-.664 2.35.664 5.03-.497 5.03-.497 4.737 7.618 6.375 16.998 7.311 29.581Z" fill="#F2F2F2"/><path fill-rule="evenodd" clip-rule="evenodd" d="M404.889 53.842c-3.121 13.386-2.977 24.343 3.912 24.343h10.654c1.692-11.37-2.755-27.137-6.878-35.09-.157-.303-.492-.875-1.282-.875H408.2a.058.058 0 0 0-.004.012c-.932.007-1.958.041-3.069.078-5.719.19-13.694.455-22.667-2.426l-1.058 5.287c8.099 5.209 16.301 9.244 23.487 8.67Z" fill="#1F28CF"/><path fill-rule="evenodd" clip-rule="evenodd" d="M203.122 21.524c1.68 1.013 3.331 1.502 4.106 1.303 1.943-.501 2.122-7.61.618-10.413-1.503-2.803-9.233-4.024-9.623 1.529-.135 1.927.674 3.647 1.87 5.05l-2.144 9.993h6.228l-1.055-7.462Z" fill="#B28B67"/><path fill-rule="evenodd" clip-rule="evenodd" d="M203.433 14.556c.539-.802 1.056-1.414 1.729-1.77 2.738.044 3.058-.447 3.058-2.101-.442-.316-2.002-.85-3.749-1-.892-.254-1.948-.206-2.965.22-1.256.356-2.319 1.123-2.789 2.56-1.699 2.932-.409 5.984 1.329 7.027.463-.548.866-1.08 1.227-1.588a1.557 1.557 0 0 1 1.274-2.66c.039 1.076.198 4.713.616 5.976.493 1.49 3.371 1.855 4.374 1.855.867 0 .838-.82.816-1.409a6.825 6.825 0 0 1-.005-.236c0-.15-.196-.15-.417-.15-.286 0-.616.002-.616-.328 0-.358.496-.633.939-.88.277-.153.533-.295.636-.44.326-.455.435-1.07-.056-1.07-.268 0-.636.156-1.079.342-.668.28-1.507.633-2.43.633-1.525 0-1.887-4.924-1.892-4.981Zm-7.56 35.967 9.408 33.013 6.864 24.332h5.006l-7.294-57.345h-13.984Z" fill="#191847"/><path fill-rule="evenodd" clip-rule="evenodd" d="M193.358 50.523c-.218 17.015-.96 26.296-1.188 27.842-.229 1.546-3.683 11.38-10.364 29.503h5.186c8.505-17.386 13.253-27.22 14.243-29.503.99-2.283 4.047-11.564 8.65-27.842h-16.527Z" fill="#2F3676"/><path fill-rule="evenodd" clip-rule="evenodd" d="m181.343 112.539.259-5.449h5.449c3.876 2.724 10.12 4.411 10.12 4.411v1.038h-9.86l-3.374-.519v.519h-2.594Zm30.099 0 .26-5.449h5.449c3.876 2.724 10.12 4.411 10.12 4.411v1.038h-9.861l-3.373-.519v.519h-2.595Z" fill="#191847"/><path fill-rule="evenodd" clip-rule="evenodd" d="M175.729 59.938c.967-1.422 6.565-16.542 6.565-16.542l4.596.668s-7.4 16.055-7.934 16.981c-.695 1.204-.081 3.181.336 4.522.064.207.124.4.173.571-.874.253-1.207-.248-1.558-.776-.396-.596-.815-1.227-2.065-.846-.482.147-.946.336-1.399.52-1.565.638-3.002 1.224-4.653-.146-.262-.217-.483-.927.349-1.34 2.073-1.031 5.116-2.917 5.59-3.612Zm49.867-7.028-7.833-6.64-2.141 4.384 7.94 3.962c2.122 2.878 3.336 4.101 3.641 3.669.258-.365.102-.734-.041-1.074-.112-.265-.216-.512-.111-.725.238-.488 1.787-.327 3.251-.11 1.464.215 1.081-.47.749-.818-1.44-1.004-3.258-1.887-5.455-2.648Z" fill="#B28B67"/><path fill-rule="evenodd" clip-rule="evenodd" d="m201.503 24.66 2.848-.941c3.863 9.65 9.624 18.987 19.25 26.874l-2.381 4.106c-8.459-4.983-16.468-8.854-19.717-16.332-1.091-2.51-.089-10.705 0-13.706Z" fill="#C5CFD6"/><path fill-rule="evenodd" clip-rule="evenodd" d="M191.722 51.82s12.236 1.297 19.263 0c.58-.107.672-1.079.402-1.738-4.191-10.27-7.065-19.23-7.065-26.363-1.153.582-4.037.174-4.037.174-5.168 7.351-7.543 15.785-8.563 27.927Z" fill="#323337"/><path fill-rule="evenodd" clip-rule="evenodd" d="M198.804 23.277a8.69 8.69 0 0 1 .204-.134l-.008.134h2.153c.109.637.267 2.995.498 6.435.84 12.498 2.639 39.267 6.467 49.51h-26.416c.557-11.646 4.851-25.573 9.299-37.4-3.282 3.266-7.115 8.74-10.213 17.853l-4.948-1.27c5.042-21.728 19.816-32.934 22.682-34.934l.084-.194h.198Z" fill="#DDE3E9"/><path fill-rule="evenodd" clip-rule="evenodd" d="M149.15 21.524c1.68 1.013 3.331 1.502 4.106 1.303 1.943-.501 2.122-7.61.618-10.413-1.503-2.803-9.233-4.024-9.623 1.529-.135 1.927.674 3.647 1.87 5.05l-2.144 9.993h6.228l-1.055-7.462Z" fill="#B28B67"/><path fill-rule="evenodd" clip-rule="evenodd" d="M151.415 9.361c-.851-.26-2.086-.347-2.606-.288a4.473 4.473 0 0 0 .317-2.265c-.093-.747-.426-1.382-.735-2.048-.142-.307-.303-.613-.543-.848a1.859 1.859 0 0 0-.88-.472 2.353 2.353 0 0 0-1.013 0c-.147.03-.28.097-.424.135-.148.038-.22-.054-.327-.147-.259-.225-.638-.335-.966-.375a2.492 2.492 0 0 0-1.099.132 2.153 2.153 0 0 0-.915.586 1.558 1.558 0 0 0-.274.42c-.026.064-.031.102-.094.126-.059.021-.128.022-.189.042a2.37 2.37 0 0 0-1.364 1.237c-.16.34-.236.94-.215 1.611.021.672.627 2.424 1.194 3.063.506.57 1.25.947 1.968 1.112-.476.544-.793 1.225-1.028 1.917a9.368 9.368 0 0 0-.471 2.33c-.055.757-.06 1.557.117 2.297.166.692.521 1.26 1.113 1.62.271.166.563.29.857.403.289.112.579.22.882.283.574.118 1.235.098 1.677-.358.159-.165.334-.372.45-.573.042-.072.067-.12.017-.19-.061-.085-.159-.15-.238-.216a2.235 2.235 0 0 1-.79-1.48c-.071-.608.093-1.393.683-1.658.73-.328 1.533.048 2.182.399.275-.973.841-1.849 1.728-2.295.981-.493 2.107-.55 3.116-.974.262-.11.53-.236.724-.46.08-.095.175-.217.208-.34.042-.164-.063-.301-.145-.428-.431-.675-2.066-2.038-2.917-2.298Z" fill="#191847"/><path fill-rule="evenodd" clip-rule="evenodd" d="m142.42 50.523 19.281 32.234 14.456 27.252h3.113l-24.22-59.486h-12.63Z" fill="#997659"/><path fill-rule="evenodd" clip-rule="evenodd" d="M175.038 108.49c-.314-.136-.687.003-.802.326-.186.519-.418 1.253-.418 1.674 0 .702.233 2.049.233 2.049h14.636s.57-1.886-.659-2.036c-1.229-.151-2.042-.272-2.042-.272l-6.771-3.019a.293.293 0 0 0-.39.156l-.424 1.029s-1.138.531-1.849.531c-.413 0-1.051-.238-1.514-.438Z" fill="#E4E4E4"/><path fill-rule="evenodd" clip-rule="evenodd" d="m172.142 105.645 6.004-1.816s-3.946-11.797-9.672-25.963c-5.727-14.167-12.301-27.343-12.301-27.343h-16.959s7.309 16.667 15.497 30.288c8.188 13.621 17.431 24.834 17.431 24.834Z" fill="#DB2721"/><path fill-rule="evenodd" clip-rule="evenodd" d="M141.153 50.523c-1.82 11.327-5.329 25.8-5.661 26.246-.22.298-8.17 2.962-23.849 7.992l.673 2.745c18.697-2.697 28.548-4.79 29.554-6.278 1.51-2.233 9.048-19.868 11.968-30.705h-12.685Z" fill="#B28B67"/><path fill-rule="evenodd" clip-rule="evenodd" d="m117.155 82.387 1.184 4.422c13.984 1.227 22.553.34 25.705-2.658 3.153-3 6.746-14.209 10.779-33.628h-16.171c-2.555 15.902-3.984 24.187-4.286 24.854-.302.668-6.039 3.005-17.211 7.01Z" fill="#FF4133"/><path fill-rule="evenodd" clip-rule="evenodd" d="M112.805 84.345c.079-.334-.123-.676-.461-.734-.543-.093-1.306-.194-1.722-.12-.691.12-1.976.585-1.976.585l2.541 14.413s1.957.234 1.891-1.002a88.629 88.629 0 0 1-.087-2.058l1.797-7.193a.293.293 0 0 0-.221-.357l-1.087-.239s-.721-1.028-.844-1.729c-.072-.406.052-1.076.169-1.566Z" fill="#E4E4E4"/><path fill-rule="evenodd" clip-rule="evenodd" d="m164.567 29.424-9.007 4.933 3.326 3.57 6.544-5.992c3.448-.95 5.024-1.645 4.73-2.085-.248-.371-.648-.358-1.017-.346-.287.009-.555.017-.717-.157-.37-.397.336-1.786 1.062-3.075.727-1.29-.05-1.177-.494-.991-1.454.984-2.93 2.365-4.427 4.143Zm9.055 6.922-3.956 2.173.225 3.97s2.562-1.85 4.767-2.464c2.811-.783 3.948-1.382 5.321-3.132.735-.936 1.359-2.819.659-3.432-.268-.235-1.268.32-2.288.888-.777.432-1.566.87-2.053.97-.654.135-.578-.714-.516-1.392.044-.486.08-.885-.168-.77-1.158.02-1.991 3.189-1.991 3.189Z" fill="#997659"/><path fill-rule="evenodd" clip-rule="evenodd" d="M151.174 33.258c3.154-.033 7.361-.7 11.85-3.549l1.763 3.932c-3.097 3.072-7.45 5.597-11.257 5.49-3-.084-4.533-3.713-2.356-5.873Z" fill="#2026A2"/><path fill-rule="evenodd" clip-rule="evenodd" d="M150.667 23.277h-6.483c-.789 0-6.155 10.287-6.16 16.97-.002 2.294-.806 4.274-1.653 6.359-1.404 3.458-2.926 7.205-1.093 13.156 1.633-.322 4.388.038 7.387.429 5.613.731 12.078 1.574 13.631-1.727 1.158-2.463 1.503-5.16 1.352-7.993 4.775-.104 10.571-1.679 17.334-5.211.221-2.584-2.712-8.652-2.712-8.652s-11.619 4.134-16.851 2.946a324.187 324.187 0 0 0-.957-3.158c-1.382-4.506-2.756-8.983-3.078-13.119h-.717Z" fill="#1F28CF"/><path fill-rule="evenodd" clip-rule="evenodd" d="M94.919 21.524c1.68 1.013 3.33 1.502 4.106 1.303 1.943-.501 2.122-7.61.618-10.413s-9.234-4.024-9.623 1.529c-.135 1.927.674 3.647 1.87 5.05l-2.144 9.993h6.227l-1.054-7.462Z" fill="#B28B67"/><path fill-rule="evenodd" clip-rule="evenodd" d="M96.094 9.184c-.821-.135-3.031-.227-3.439-.227-.26 0-.542.06-.697-.18-.126-.196-.08-.527-.117-.754a10.997 10.997 0 0 0-.17-.785 7.976 7.976 0 0 0-.827-2.104c-.711-1.24-1.752-2.21-3.066-2.775-1.451-.624-3.093-.767-4.654-.64-1.67.135-3.182.686-4.76 1.205-1.502.495-3.077.69-4.648.448-1.584-.243-2.78-1.102-4.117-1.916C68.232.622 66.67.076 65.052.202c-1.509.117-2.9.74-4.147 1.572-1.168.779-2.131 1.716-2.675 3.035-.585 1.418-.585 2.975.377 4.229 1.395 1.817 3.984 2.287 6.138 2.24a11.725 11.725 0 0 0 3.646-.668c1.569-.551 2.924-1.487 4.392-2.245a11.43 11.43 0 0 1 2.147-.86c.724-.204 1.437-.298 2.092.14.694.462 1.316.917 2.109 1.207a6.8 6.8 0 0 0 2.378.427c1.578-.013 3.133-.504 4.666-.833 1.25-.269 2.587-.536 3.86-.278.532.107 1.309.33 1.5.882-3.23.586-4.5 4.583-3.59 7.517.493 1.583 3.448 3.434 4.598 2.602.728-.528.286-1.22 0-1.677-.548-.875-.736-2 .278-2.61.874-.525 1.794.723 1.811.722.24-.019 2.317-1.193 3.748-2.907 1.411.084 1.625-.847 1.288-1.608-.337-.761-2.44-1.72-3.574-1.905Z" fill="#191847"/><path fill-rule="evenodd" clip-rule="evenodd" d="M84.723 50.523c.468 6.385 30.609 25.186 30.785 25.713.117.352-9.382 22.233-9.382 22.233l2.635 1.024s14.57-23.174 13.822-25.643c-1.072-3.535-23.386-23.26-23.386-23.26l-14.474-.067Z" fill="#B28B67"/><path fill-rule="evenodd" clip-rule="evenodd" d="m106.82 95.175 4.301 1.566c9.071-10.235 12.627-18.68 11.978-22.982-.648-4.302-23.305-23.22-23.305-23.22h-15.38c.525 14.788 28.463 25.754 28.836 26.384.374.63-3.303 6.802-6.43 18.252Z" fill="#2F3676"/><path fill-rule="evenodd" clip-rule="evenodd" d="M105.984 97.99c-.249-.236-.647-.233-.866.031-.352.424-.821 1.035-.965 1.43-.24.66-.481 2.006-.481 2.006l13.753 5.005s1.181-1.577.077-2.139a86.713 86.713 0 0 1-1.826-.953l-5.33-5.153a.293.293 0 0 0-.42.013l-.75.822s-1.251.11-1.92-.133c-.388-.141-.906-.584-1.272-.93Z" fill="#E4E4E4"/><path fill-rule="evenodd" clip-rule="evenodd" d="M88.189 50.523 74.762 82.757 61.565 110.01h3.114l34.064-59.486H88.189Z" fill="#997659"/><path fill-rule="evenodd" clip-rule="evenodd" d="M62.164 108.49c-.314-.136-.687.003-.803.326-.185.519-.418 1.253-.418 1.674 0 .702.234 2.049.234 2.049h14.635s.57-1.886-.658-2.036c-1.23-.151-2.042-.272-2.042-.272l-6.771-3.019a.293.293 0 0 0-.39.156l-.424 1.029s-1.138.531-1.85.531c-.413 0-1.05-.238-1.513-.438Z" fill="#E4E4E4"/><path fill-rule="evenodd" clip-rule="evenodd" d="m62.757 104.348 6.918 1.297c5.35-7.864 27.736-40.11 30.19-55.122h-15.4c-8.197 10.852-16.608 45.83-21.707 53.825Z" fill="#5C63AB"/><path fill-rule="evenodd" clip-rule="evenodd" d="m120.944 39.288-9.402 4.13 3.002 3.846 7.042-5.4c3.517-.645 5.148-1.2 4.894-1.664-.215-.392-.615-.414-.984-.434-.286-.016-.554-.03-.701-.218-.334-.428.491-1.75 1.327-2.971s.052-1.177-.406-1.03c-1.534.853-3.125 2.1-4.772 3.741ZM78.848 45.61l-5.318-1.055c-3.606 9.504-5.756 14.713-6.45 15.625-.508.67-3.645 2.392-5.768 3.313-.852.369-.67 1.09-.42 1.32 1.577 1.453 3.043.944 4.639.389.462-.16.934-.325 1.424-.446 1.267-.315 1.653.337 2.017.952.323.546.629 1.063 1.515.856-.04-.174-.09-.369-.143-.579-.346-1.36-.856-3.365-.1-4.53.388-.598 3.256-5.88 8.604-15.845Z" fill="#B28B67"/><path fill-rule="evenodd" clip-rule="evenodd" d="m93.3 24.66 2.243-.384c4.887 4.74 6.882 16.13 10.139 17.638 3.079 1.425 7.444.046 12.633-1.817l1.589 3.55c-4.715 5.101-14.758 9.41-18.829 6.95-6.509-3.933-8.012-17.98-7.776-25.936Z" fill="#DB2721"/><path fill-rule="evenodd" clip-rule="evenodd" d="M83.518 52.858h19.853c.908 0 .737-1.31.606-1.971-1.514-7.629-7.422-15.852-7.422-26.712l-5.727-.898c-4.736 7.618-6.374 16.997-7.31 29.581Z" fill="#DDE3E9"/><path fill-rule="evenodd" clip-rule="evenodd" d="M96.978 58.307h-17.87c.282-4.265 1.188-8.775 2.43-13.173-4.047 7.3-7.449 12.556-10.206 15.768l-4.161-.815c2.68-16.625 10.443-28.895 23.288-36.81h2.267s7.712 26.287 4.252 35.03Z" fill="#FF4133"/><path fill-rule="evenodd" clip-rule="evenodd" d="M40.834 9.006a5.838 5.838 0 0 0-5.839 5.838v4.93a5.84 5.84 0 0 0 4.957 5.773l.004.072h7.525c1.28-1.25-.167-9.73-1.069-12.541-.127-.398-.25-.684-.372-.878a5.838 5.838 0 0 0-5.206-3.194Z" fill="#191847"/><path fill-rule="evenodd" clip-rule="evenodd" d="M40.947 21.524c1.68 1.013 3.33 1.502 4.106 1.303 1.943-.501 2.122-7.61.618-10.413s-9.234-4.024-9.623 1.529c-.135 1.927.674 3.647 1.87 5.05l-2.144 9.993H42l-1.054-7.462Z" fill="#B28B67"/><path fill-rule="evenodd" clip-rule="evenodd" d="M35.224 13.975c.18-.179.356-.352.53-.506l-.01-.202s1.956-4.002 4.96-4.002c3.002 0 3.952 1.396 4.759 2.582l.002.004c-.422 1.448-1.694 2.034-3.133 2.697-.62.285-1.27.585-1.897.973a1.427 1.427 0 1 0-.834 2.534c.287 3.082.172 6.602-.683 7.438h-7.525c-.216-3.753.755-4.824 1.747-5.918.934-1.03 1.886-2.08 1.886-5.405l.198-.195Z" fill="#191847"/><path fill-rule="evenodd" clip-rule="evenodd" d="M25.76 75.975s9.337 2.612 16.111 2.612c6.775 0 12.585-4.022 12.585-4.022s-9.137-2.68-15.05-2.68c-5.912 0-13.646 4.09-13.646 4.09Z" fill="#1F28CF"/><path fill-rule="evenodd" clip-rule="evenodd" d="M47.26 81.096c-.06-.09-.11-.188-.15-.295-.833-2.2-14.16-25.938-15.488-30.278h15.005c1.01 3.3 5.553 24.007 6.192 28.139 2.018 6.516 6.172 27.622 6.702 29.084.558 1.538-2.58 3.141-3.417 1.25-1.331-3.009-4.502-11.334-5.914-16.418-1.324-4.766-2.402-9.053-2.93-11.482Z" fill="#997659"/><path fill-rule="evenodd" clip-rule="evenodd" d="M34.984 83.994c-6.093 1.54-28.38 4.324-29.91 4.761-1.573.45-2.952-2.794-1.008-3.496 3.095-1.118 11.621-3.7 16.79-4.755 4.159-.847 7.953-1.539 10.5-1.944-.215-7.156-1.202-24.328-.555-28.037h13.276c-.62 3.557-5.861 29.508-6.836 32.105-.309.928-1.231 1.337-2.257 1.366Z" fill="#B28B67"/><path fill-rule="evenodd" clip-rule="evenodd" d="M4.601 85.123c.08-.333-.122-.676-.46-.734-.544-.092-1.307-.194-1.722-.12-.691.121-1.977.585-1.977.585l2.542 14.413s1.956.235 1.89-1.002a88.746 88.746 0 0 1-.087-2.058l1.797-7.193a.293.293 0 0 0-.22-.356l-1.088-.24s-.72-1.028-.844-1.728c-.071-.407.053-1.077.17-1.567Zm51.336 23.367c-.315-.136-.688.003-.803.326-.186.519-.418 1.253-.418 1.675 0 .701.234 2.048.234 2.048h14.635s.57-1.886-.659-2.036a89.464 89.464 0 0 1-2.042-.272l-6.77-3.019a.293.293 0 0 0-.39.156l-.425 1.029s-1.138.531-1.85.531c-.412 0-1.05-.238-1.512-.438Z" fill="#E4E4E4"/><path fill-rule="evenodd" clip-rule="evenodd" d="M30.844 50.523s8.775-2.51 16.606 0c1.817 8.287 6.23 11.576 7.006 24.282-8.822 4.384-19.72-3.126-28.802 1.149-2.595-5.98 1.038-20.38 5.19-25.43Z" fill="#2B44FF"/><path fill-rule="evenodd" clip-rule="evenodd" d="m66.258 38.827-10.245 1.397 1.838 4.59 8.313-3.296c3.584.354 5.316.269 5.198-.255-.1-.441-.48-.575-.83-.697-.274-.096-.53-.186-.619-.41-.204-.51.96-1.569 2.108-2.526 1.148-.957.378-1.133-.107-1.118-1.72.403-3.606 1.175-5.656 2.315ZM16.416 63.992c.76-1.542 7.414-21.396 7.414-21.396l5.682.021s-9.346 21.031-9.746 22.023c-.52 1.289.363 3.161.962 4.43.093.197.178.379.251.542-.83.372-1.23-.077-1.65-.551-.476-.536-.98-1.102-2.163-.551-.458.213-.89.465-1.313.71-1.461.85-2.803 1.63-4.629.503-.29-.178-.607-.851.16-1.376 1.909-1.31 4.66-3.6 5.032-4.355Z" fill="#997659"/><path fill-rule="evenodd" clip-rule="evenodd" d="m39.393 24.575 4.45.296c1.095 9.913 7.063 16.174 20.425 14.054l1.775 12.765C53.554 53.304 42.6 48.304 40.357 34.767c-.581-3.505-1.04-7.152-.964-10.192Z" fill="#AFB9C5"/><path fill-rule="evenodd" clip-rule="evenodd" d="M17.195 61.42c3.09-16.434 9.609-29.148 19.559-38.143h.441l.004.004 6.74 1.544c0 8.097 1.801 14.147 3.533 19.963.748 2.512 1.483 4.98 2.054 7.551H31.322a150.547 150.547 0 0 0-.496 9.082h-13.63Z" fill="#C5CFD6"/><path fill-rule="evenodd" clip-rule="evenodd" d="M31.322 52.34c.522-5.997 1.454-11.654 2.996-16.971-.338 5.686-.432 12.74.704 16.97h-3.7Z" fill="#000" fill-opacity=".1"/><path fill-rule="evenodd" clip-rule="evenodd" d="M567.986 40.466c-1.681 1.013-3.331 1.502-4.106 1.303-1.944-.501-2.122-7.61-.619-10.413 1.504-2.803 9.234-4.025 9.623 1.529.136 1.927-.674 3.647-1.869 5.05l2.144 9.993h-6.228l1.055-7.462Z" fill="#B28B67"/><path fill-rule="evenodd" clip-rule="evenodd" d="M560.502 27.47c.129-.453.476-.841.943-.956.114-.028.231-.04.348-.035.041.002.053.014.073-.015.014-.022.014-.075.02-.1a1.86 1.86 0 0 1 .071-.234c.098-.26.262-.49.46-.684a2.32 2.32 0 0 1 1.392-.659c.285-.025.567.022.837.114.139.048.274.108.406.174.039.02.168.117.208.11.044-.006.132-.115.168-.143.441-.339.986-.472 1.536-.468.621.005 1.219.036 1.736.414a3.5 3.5 0 0 1 .465.412c.029.032.057.064.085.098.046.056.039.075.104.035.249-.151.537-.222.828-.186.173.021.341.073.5.141.055.023.18.116.238.117.058 0 .182-.085.241-.107a1.97 1.97 0 0 1 .999-.093c.347.057.687.195.981.386.141.092.264.194.363.33.043.06.081.122.13.176.028.032.084.065.099.106-.009-.025.379-.174.416-.184.195-.05.393-.04.584.022.359.119.668.384.922.655a2.638 2.638 0 0 1 .469.701c.019.04.031.09.056.126.032.047.053.048.111.068.294.103.562.277.766.513.206.238.34.531.397.84.003.018.005.094.015.104.015.013.074.007.097.01a1.896 1.896 0 0 1 .634.186c.502.248.861.714 1.037 1.238.184.55.181 1.179-.04 1.718a1.6 1.6 0 0 1-.127.252c-.031.05-.041.05-.021.1.022.058.063.114.089.17.086.183.145.377.183.575.062.324.093.666.032.993-.029.152-.078.3-.154.436a1.205 1.205 0 0 1-.218.285c-.017.017-.039.031-.053.05-.035.044-.042.007-.024.073.025.092.082.182.117.272a4.586 4.586 0 0 1 .241.863c.061.38.05.784-.13 1.133a1.13 1.13 0 0 1-.531.509c-.038.018-.087.026-.104.063-.019.04.009.118.015.163.056.386.083.791-.031 1.17a1.62 1.62 0 0 1-.641.86c-.587.395-1.377.373-1.993.056a2.082 2.082 0 0 1-.445-.305c-.341.46-1.043.445-1.542.314a2.217 2.217 0 0 1-1.408-1.163c-.392.478-1.217.323-1.489-.196a1.246 1.246 0 0 1-.126-.409c-.01-.074-.004-.15-.011-.223-.01-.094-.073-.186-.109-.277a1.517 1.517 0 0 1-.116-.551c-.001-.1.012-.197.021-.296.009-.09-.016-.172-.03-.26.159.026.353-.017.504-.063.147-.046.285-.165.389-.274.241-.253.389-.585.49-.916.221-.725.13-1.595-.599-1.994-.34-.185-1.358-.184-1.763-.093-.425.097-.908 1.036-.932 1.124-.014.055-.007.122-.057.159-.111.08-.292-.06-.374-.128a1.483 1.483 0 0 1-.327-.435 5.405 5.405 0 0 1-.449-1.101c-.083-.293-.136-.596-.244-.882-.108-.284-.278-.539-.543-.7-.288-.175-.617-.268-.933-.378-.313-.109-.621-.242-.864-.474a1.22 1.22 0 0 1-.148-.165c-.034-.047-.067-.138-.119-.168-.08-.047-.197.075-.267.119a3.099 3.099 0 0 0-.859.852c-.229.33-.417.647-.57 1.016-.113.273-.184.622-.384.846-.089.1-.75.16-.965.073-.214-.087-.454-.314-.526-.455a.703.703 0 0 1-.06-.464c.018-.094.056-.181.077-.273a.816.816 0 0 1 .071-.221.545.545 0 0 1 .339-.271 1.613 1.613 0 0 1-.367-.497 2.138 2.138 0 0 1-.19-.649.79.79 0 0 1 .106-.505c.1-.157.277-.26.431-.358a2.792 2.792 0 0 1-.6-.653c-.321-.48-.52-1.086-.357-1.659Z" fill="#191847"/><path fill-rule="evenodd" clip-rule="evenodd" d="M590.013 80.363a4.682 4.682 0 0 1 4.682 4.682v22.811a4.683 4.683 0 0 1-4.682 4.683h-28.779a4.683 4.683 0 0 1-4.682-4.683v-22.81a4.682 4.682 0 0 1 4.682-4.683h28.779Zm-3.754 7.266a1.17 1.17 0 0 1 1.171 1.17v15.304a1.17 1.17 0 0 1-1.171 1.17h-21.271a1.17 1.17 0 0 1-1.171-1.17V88.799c0-.646.524-1.17 1.171-1.17h21.271Z" fill="#C5CFD6"/><path fill-rule="evenodd" clip-rule="evenodd" d="M544.69 94.525c-.965 3.381-3.369 9.788-6.694 17.147l-3.159-.922c2.764-16.932 5.064-28.142 6.382-31.554.87-2.254 7.456-1.99 6.699 2.546-.318 1.902-1.575 6.995-3.228 12.783Zm12.986-11.992c5.152 1.067 15.834 4.84 18.885 6.046 1.917.758.681 3.328-.955 3.103-.277-.038-1.256-.148-2.718-.311-4.696-.526-14.367-1.608-21.702-2.663-3.862-.556-1.785-7.79 2.225-7.025 1.349.258 2.784.543 4.265.85Z" fill="#B28B67"/><path fill-rule="evenodd" clip-rule="evenodd" d="M541.017 77.285c.527-1.719 24.471-7.82 24.471-7.82h1.962v1.828l-16.5 8.4a3.38 3.38 0 0 1-.044.86c.119 6.226-2.546 10.877-5.185 15.483-1.725 3.012-3.439 6.004-4.356 9.404l-6.062-.905c.177-.451.456-2.488.838-5.272.962-7.02 2.577-18.794 4.842-21.91l.024-.031a.498.498 0 0 1 .01-.037Z" fill="#1F28CF"/><path fill-rule="evenodd" clip-rule="evenodd" d="M566.079 84.68a180.8 180.8 0 0 1 4.09-.78c7.684-1.348 9.924-5.46 8.6-14.435h-14.158c-2.313.664-14.332 5.704-20.568 8.385-4.127 1.775-2.826 8.17-.489 9.835.013.102.055.172.13.203 8.861 3.673 16.418 3.399 21.271 3.223 2.032-.074 3.59-.13 4.571.127l1.537-4.848-4.984-1.71Z" fill="#2B44FF"/><path fill-rule="evenodd" clip-rule="evenodd" d="M574.939 88.4c.015-.342.304-.616.645-.579.547.06 1.309.174 1.688.359.631.307 1.739 1.108 1.739 1.108l-6.416 13.154s-1.945-.314-1.542-1.485a87.37 87.37 0 0 0 .652-1.954l.255-7.41a.292.292 0 0 1 .311-.281l1.111.07s.975-.79 1.287-1.43c.181-.371.247-1.049.27-1.552Zm-36.215 21.646c.315-.136.688.004.803.326.186.519.418 1.253.418 1.675 0 .702-.234 2.048-.234 2.048h-14.635s-.571-1.886.659-2.036a82.97 82.97 0 0 0 2.042-.272l6.771-3.018a.292.292 0 0 1 .389.156l.425 1.029s1.138.531 1.849.531c.413 0 1.051-.239 1.513-.439Z" fill="#E4E4E4"/><path fill-rule="evenodd" clip-rule="evenodd" d="m545.038 72.516 7.351-7.17 2.441 4.224-7.644 4.506c-1.916 3.02-3.042 4.324-3.377 3.913-.282-.345-.152-.724-.033-1.074.093-.271.179-.525.06-.731-.271-.47-1.806-.2-3.251.117-1.446.317-1.111-.392-.804-.763 1.366-1.102 3.118-2.11 5.257-3.022Zm43.327 10.418c-.761-1.542-3.35-16.577-3.35-16.577l-5.423.02s5.022 16.213 5.423 17.205c.52 1.289-.364 3.161-.962 4.43-.093.197-.179.38-.252.542.831.372 1.23-.077 1.651-.551.476-.535.979-1.102 2.163-.55.457.212.89.464 1.313.71 1.461.849 2.803 1.629 4.629.502.289-.178.606-.85-.16-1.376-1.909-1.31-4.661-3.6-5.032-4.355Z" fill="#B28B67"/><path fill-rule="evenodd" clip-rule="evenodd" d="m569.605 43.603-2.244-.385c-3.863 9.65-10.607 18.419-20.233 26.305l7.274 8.837c9.624-11.23 15.557-22.815 15.203-34.757Z" fill="#191847"/><path fill-rule="evenodd" clip-rule="evenodd" d="M579.386 71.8h-19.98s6.943-16.882 6.943-28.683l6.027-.898c4.737 7.618 6.075 16.998 7.01 29.581Z" fill="#DDE3E9"/><path fill-rule="evenodd" clip-rule="evenodd" d="m572.504 42.224.005-.004s13.774 13.492 15.959 38.143h-9.739a61.05 61.05 0 0 0 .151-3.216h-13.078s2.468-23.067 2.699-30.678l1.456-4.162s1.445-.063 2.151-.088h.394l.002.005Z" fill="#2F3676"/><path fill-rule="evenodd" clip-rule="evenodd" d="M578.878 77.25a66.18 66.18 0 0 0-.986-12.845c-.357 4.644-1.102 10.232-2.658 12.844h3.644Z" fill="#000" fill-opacity=".1"/><path fill-rule="evenodd" clip-rule="evenodd" d="m575.984 69.206-6.458-3.003v3.002h6.458Z" fill="#fff" fill-opacity=".2"/><path fill-rule="evenodd" clip-rule="evenodd" d="M460.042 40.466c-1.681 1.013-3.331 1.502-4.106 1.303-1.944-.501-2.122-7.61-.619-10.413 1.504-2.803 9.234-4.025 9.623 1.529.136 1.927-.674 3.647-1.869 5.05l2.143 9.993h-6.227l1.055-7.462Z" fill="#B28B67"/><path fill-rule="evenodd" clip-rule="evenodd" d="M462.879 31.58c-3.593.026-6.094-.125-7.525-.519.065-1.218 1.332-2.594 4.671-2.594 3.715 0 5.708 2.165 5.708 4.67 0 2.289-1.473 5.076-2.594 5.19-.291-.064-.539-.414-.786-.896.462-.225.786-.755.786-1.44 0-.658-.581-1.297-1.298-1.297-.261 0-.504.085-.708.225-.471-.758-1.061-1.324-1.887-1.263l.519-1.557 3.114-.26v-.259Z" fill="#191847"/><path fill-rule="evenodd" clip-rule="evenodd" d="M467.809 114.615c-11.034 0-19.98-8.539-19.98-19.072s8.946-19.072 19.98-19.072c11.035 0 19.98 8.539 19.98 19.072s-8.945 19.072-19.98 19.072Z" fill="#C5CFD6"/><path fill-rule="evenodd" clip-rule="evenodd" d="M436.747 94.525c-.966 3.381-3.37 9.788-6.695 17.147l-3.159-.922c2.764-16.932 5.064-28.142 6.382-31.554.87-2.254 7.457-1.99 6.699 2.546-.318 1.902-1.575 6.995-3.227 12.783Zm12.985-11.992c5.152 1.067 15.834 4.84 18.885 6.046 1.917.758.681 3.328-.955 3.103-.277-.038-1.256-.148-2.718-.311-4.696-.526-14.367-1.608-21.702-2.663-3.862-.556-1.785-7.79 2.225-7.025 1.35.258 2.784.543 4.265.85Z" fill="#B28B67"/><path fill-rule="evenodd" clip-rule="evenodd" d="M433.073 77.285c.527-1.719 24.471-7.82 24.471-7.82h1.962v1.828l-16.5 8.4a3.38 3.38 0 0 1-.044.86c.119 6.226-2.546 10.877-5.185 15.483-1.725 3.012-3.439 6.004-4.356 9.404l-6.062-.905c.177-.451.456-2.488.838-5.272.962-7.02 2.577-18.794 4.842-21.91l.024-.032.01-.036Z" fill="#1F28CF"/><path fill-rule="evenodd" clip-rule="evenodd" d="M458.135 84.68a180.8 180.8 0 0 1 4.09-.78c7.684-1.348 9.925-5.46 8.6-14.435h-14.158c-2.313.664-14.332 5.704-20.568 8.385-4.127 1.775-2.826 8.17-.489 9.835.013.102.055.172.13.203 8.861 3.673 16.418 3.399 21.271 3.223 2.032-.074 3.59-.13 4.571.127l1.537-4.848-4.984-1.71Z" fill="#2B44FF"/><path fill-rule="evenodd" clip-rule="evenodd" d="M466.995 88.4c.015-.342.304-.616.645-.579.547.06 1.309.174 1.688.359.631.307 1.739 1.108 1.739 1.108l-6.416 13.154s-1.945-.314-1.541-1.485a89.99 89.99 0 0 0 .651-1.954l.255-7.41a.292.292 0 0 1 .311-.281l1.111.07s.975-.79 1.287-1.43c.181-.371.247-1.049.27-1.552Zm-36.215 21.646c.315-.136.688.004.803.326.186.519.418 1.253.418 1.675 0 .702-.234 2.048-.234 2.048h-14.635s-.571-1.886.659-2.036a82.97 82.97 0 0 0 2.042-.272l6.771-3.018a.292.292 0 0 1 .389.156l.425 1.029s1.138.531 1.849.531c.413 0 1.051-.239 1.513-.439Z" fill="#E4E4E4"/><path fill-rule="evenodd" clip-rule="evenodd" d="M488.561 78.08c-1.016-1.387-7.139-16.302-7.139-16.302l-4.569.828s7.955 15.787 8.522 16.694c.736 1.179.191 3.176-.178 4.53-.058.21-.11.404-.154.577.883.222 1.198-.29 1.53-.83.376-.61.773-1.254 2.034-.917.488.13.958.303 1.417.471 1.586.583 3.043 1.118 4.646-.308.254-.227.449-.944-.397-1.328-2.107-.958-5.215-2.737-5.712-3.415Zm-52.872-7.693 8.277-6.078 1.829 4.523-8.196 3.399c-2.318 2.723-3.614 3.858-3.889 3.405-.231-.381-.05-.739.116-1.068.13-.256.251-.495.162-.716-.203-.503-1.761-.45-3.236-.337-1.476.114-1.046-.543-.69-.867 1.506-.901 3.382-1.655 5.627-2.26Z" fill="#B28B67"/><path fill-rule="evenodd" clip-rule="evenodd" d="m458.918 42.75 2.775 1.137c-.029.725-.026 1.756-.023 2.937.011 3.708.025 8.895-.933 10.736-3.318 6.378-10.132 9.7-17.721 13.4-1.018.497-2.049 1-3.088 1.517l-2.088-4.262c.242-.172.482-.344.72-.518a1.167 1.167 0 0 1 .012-2.209c1.242-.418 2.4-.594 3.465-.518 7.777-6.553 13.013-14.224 16.881-22.22Z" fill="#69A1AC"/><path fill-rule="evenodd" clip-rule="evenodd" d="M471.442 71.777s-12.236 1.344-19.263 0c-.58-.111-.555-2.613-.286-3.296 4.192-10.64 6.949-18.43 6.949-25.82 1.153.603 4.037.18 4.037.18 5.167 7.617 7.543 16.355 8.563 28.936Z" fill="#191847"/><path fill-rule="evenodd" clip-rule="evenodd" d="M486.961 71.906c-7.211-20.61-22-29.686-22-29.686h-2.951c.335 4.42-1.236 10.853-3.058 18.315-2.914 11.934-6.471 26.502-3.907 39.683 3.153.704 6.857.224 10.867-.297 5.787-.75 12.212-1.584 18.534.941-.243-5.28-3.326-11.125-6.395-16.944-1.946-3.689-3.886-7.366-5.093-10.883.277-.26.421-.651.35-1.054l-.135-.767a1.168 1.168 0 0 0-1.012-.957 19.78 19.78 0 0 1-.224-1.16c-.317-1.96-.114-3.9.086-5.816.109-1.052.219-2.097.241-3.137 3.475 3.096 7.682 8.494 11.231 17.85l4.901-1.442a67.3 67.3 0 0 0-.588-2.054c.567-.313 1.236-1.797.758-2.045a5.726 5.726 0 0 0-1.605-.547Z" fill="#89C5CC"/><path fill-rule="evenodd" clip-rule="evenodd" d="m463.89 42.479 1.338 4.117-2.695 3.086 2.436 2.425-5.894 10.093 7.208-10.073-2.393-2.445 2.393-2.727-2.393-4.476Z" fill="#000" fill-opacity=".1"/><path fill-rule="evenodd" clip-rule="evenodd" d="M460.803 66.091a1.038 1.038 0 1 1 0-2.076 1.038 1.038 0 0 1 0 2.076Zm-1.297 5.968a1.038 1.038 0 1 1 0-2.076 1.038 1.038 0 0 1 0 2.076Zm-1.297 4.93a1.037 1.037 0 1 0 2.075.002 1.037 1.037 0 0 0-2.075-.002Z" fill="#000" fill-opacity=".4"/><path fill-rule="evenodd" clip-rule="evenodd" d="M514.014 40.466c-1.681 1.013-3.331 1.502-4.106 1.303-1.944-.501-2.122-7.61-.619-10.413 1.504-2.803 9.234-4.025 9.623 1.529.136 1.927-.674 3.647-1.869 5.05l2.143 9.993h-6.227l1.055-7.462Z" fill="#B28B67"/><path fill-rule="evenodd" clip-rule="evenodd" d="M510.692 29.508a6.76 6.76 0 0 1 .593-.33c.035-.016.286-.195.293-.192.189.064.739.3.786.504a13.369 13.369 0 0 1 .64 1.469c.24.65.449 1.316.641 1.983.195.68.36 1.367.546 2.049.267.981.608 1.939.873 2.92.17.626.264 1.26.219 1.904l-.001.024-.001.01a4.377 4.377 0 0 1-.033.298l-.038.256c-.242-.483-.427-1.015-.623-1.52a4.512 4.512 0 0 1-.056-.149 18.65 18.65 0 0 0-.193-.305c-.411-.639-.824-1.275-1.218-1.925-.709-1.17-1.412-2.363-2.253-3.437-.248-.317-.502-.63-.747-.95-.14-.181-.276-.366-.407-.554-.094-.135-.503-.604-.355-.886.076-.144.964-.949 1.334-1.17Z" fill="#2C2C2C"/><path fill-rule="evenodd" clip-rule="evenodd" d="M511.24 29.201c-.139.047-.072-.242.063-.343.622-.47 3.002-.642 5.073-.212 1.387.288 3.001 1.005 4.109 1.927.999.83 1.686 2.162 2.039 3.449.372 1.35.428 2.76.221 4.144-.045.305-.143.595-.198.893-.061.335-.092.658-.202.984-.066.2-.18.396-.237.597-.065.23-.026.441.022.675.077.38.173.759.31 1.122.205.545.453 1.056.609 1.621.208.753 1.075 3.202.441 3.87h-12.07c.303-.83 1.216-1.805 1.401-2.693.108-.523.16-1.664.171-1.706.272-1.875.804-2.77 1.136-3.095.333-.325.776-.425.799-.707.094-1.166-.369-2.283-.709-3.371-.406-1.297-.702-2.626-1.12-3.918-.185-.572-1.138-3.479-1.858-3.237Z" fill="#8991DC"/><path fill-rule="evenodd" clip-rule="evenodd" d="M515.927 34.731c.098-1.973 0-2.744-.455-4.189h.28c.444.574.815 2.327.398 4.189h-.223Zm5.5-.093.151-.368.179.085c-.563 2.06-1.248 3.65-3.6 4.982l-.182-.128c2.223-1.564 2.7-2.73 3.452-4.57Zm-3.334-2.463-.068.522c-.338 2.61-.552 4.264-2.437 7.264l.214.065c2.065-2.782 2.393-5.053 2.49-7.835l-.199-.016Zm2.034 8.456.183.222c-.915.192-1.537.865-2.251 1.636-.754.817-1.611 1.743-3.024 2.327l-.263-.16c1.543-.802 2.261-1.599 2.887-2.295.649-.72 1.2-1.333 2.468-1.73Z" fill="#000" fill-opacity=".2"/><path fill-rule="evenodd" clip-rule="evenodd" d="M530.442 80.363h-20.046l-2.627 32.176h29.841l-7.168-32.176Z" fill="#C5CFD6"/><path fill-rule="evenodd" clip-rule="evenodd" d="M530.442 80.363h-6.165l-3.69 32.176h17.023l-7.168-32.176Z" fill="#000" fill-opacity=".1"/><path fill-rule="evenodd" clip-rule="evenodd" d="M499.382 86.737c2.253 4.778 5.773 16.375 5.773 16.375l-2.989 1.365s-7.582-12.19-12.216-20.524c.216 1.876.436 3.988.64 6.209.483 5.26 0 16.623-.26 19.906-.163 2.063-2.966 1.631-3.228-.006-.044-.277-.225-1.25-.494-2.701-1.322-7.118-4.781-25.748-4.787-30.31-.002-1.835 3.584-3.484 5.721-2.2 1.468-1.567 4.246-2.47 5.843.118 1.015 1.645 3.426 6.315 5.997 11.768Z" fill="#B28B67"/><path fill-rule="evenodd" clip-rule="evenodd" d="M504.941 98.819 494.684 74.52c-2.457-3.952-9.346.805-8.508 3.097 1.903 5.205 11.577 22.054 12.144 23.605l6.621-2.404Z" fill="#1F28CF"/><path fill-rule="evenodd" clip-rule="evenodd" d="M504.7 101.747c.204-.275.597-.341.858-.119.42.356.989.876 1.2 1.241.351.608.821 1.891.821 1.891l-12.674 7.318s-1.437-1.348-.448-2.093a90.727 90.727 0 0 0 1.633-1.256l4.354-6a.293.293 0 0 1 .416-.06l.882.679s1.251-.109 1.867-.465c.357-.206.791-.732 1.091-1.136Zm-14.499 6.742c.315-.136.688.004.803.326.186.519.418 1.253.418 1.675 0 .702-.234 2.048-.234 2.048h-14.635s-.57-1.886.659-2.036a86.76 86.76 0 0 0 2.042-.271l6.771-3.019a.293.293 0 0 1 .39.156l.424 1.029s1.138.531 1.849.531c.413 0 1.051-.239 1.513-.439Z" fill="#E4E4E4"/><path fill-rule="evenodd" clip-rule="evenodd" d="M481.102 78.918c0 6.894 3.274 22.974 3.276 24.492l7.044.005s-1.546-21.522-1.097-21.754c.45-.231 18.437 1.796 23.831 1.796 7.779 0 10.997-4.905 11.258-13.992h-15.41c-3.137.335-19.503 3.636-25.581 4.771-2.602.486-3.321 2.783-3.321 4.682Z" fill="#2B44FF"/><path fill-rule="evenodd" clip-rule="evenodd" d="M537.506 81.118c-.76-1.543-4.559-21.397-4.559-21.397l-5.682.022s6.491 21.03 6.892 22.023c.52 1.288-.364 3.16-.963 4.43-.092.197-.178.379-.251.542.831.372 1.23-.078 1.651-.552.475-.535.978-1.101 2.163-.55.457.212.89.464 1.313.71 1.461.849 2.803 1.63 4.628.503.29-.179.607-.851-.159-1.377-1.91-1.309-4.661-3.6-5.033-4.354Zm-47.854-7.736 7.351-7.171 2.441 4.224-7.643 4.507c-1.917 3.019-3.043 4.323-3.377 3.913-.283-.346-.153-.725-.034-1.074.093-.272.179-.525.06-.731-.271-.47-1.806-.201-3.251.117-1.446.317-1.111-.393-.804-.763 1.366-1.103 3.118-2.11 5.257-3.022Z" fill="#B28B67"/><path fill-rule="evenodd" clip-rule="evenodd" d="m515.633 43.603-2.244-.385c-3.534 12.495-21.695 21.011-22.81 25.682-.409 1.713.824 2.579.187 3.1l2.917 2.136c.493-.577 1.547.477 3.748-.26 2.201-.737 18.202-15.479 18.202-30.273Z" fill="#DB2721"/><path fill-rule="evenodd" clip-rule="evenodd" d="M519.491 41.004a1.171 1.171 0 0 1 1.25 1.086l.097 1.387c4.222 3.25 14.688 12.96 17.415 31.037.287 1.898-.231 2.916-.645 3.728-.283.556-.518 1.016-.413 1.598l-3.817 1.053c0-.429-.481-.756-1.101-1.177-.903-.612-2.1-1.425-2.543-3.046-.42-1.536-1.034-3.454-1.768-5.589-.07 2.827-.606 5.426-1.774 7.58-2.913 5.37-19.748-.52-21.507-6-.939-2.924.393-5.379 2.154-8.626 2.236-4.121 5.164-9.518 5.02-18.771l-.178-2.54a1.17 1.17 0 0 1 1.086-1.25l6.724-.47Z" fill="#FF4133"/></svg>