<?xml version="1.0" encoding="UTF-8"?>
<!DOCTYPE svg PUBLIC "-//W3C//DTD SVG 1.1//EN" "http://www.w3.org/Graphics/SVG/1.1/DTD/svg11.dtd">
<svg xmlns="http://www.w3.org/2000/svg" version="1.1" width="55px" height="20px" style="shape-rendering:geometricPrecision; text-rendering:geometricPrecision; image-rendering:optimizeQuality; fill-rule:evenodd; clip-rule:evenodd" xmlns:xlink="http://www.w3.org/1999/xlink">
<g><path style="opacity:0.849" fill="#6899fe" d="M -0.5,-0.5 C 3.5,-0.5 7.5,-0.5 11.5,-0.5C 12.2341,0.707917 12.5674,2.04125 12.5,3.5C 9.5,3.5 6.5,3.5 3.5,3.5C 3.5,4.5 3.5,5.5 3.5,6.5C 5.85684,6.33669 8.19018,6.50335 10.5,7C 11.3802,8.35613 11.7135,9.85613 11.5,11.5C 8.83333,11.5 6.16667,11.5 3.5,11.5C 3.5,12.8333 3.5,14.1667 3.5,15.5C 6.5,15.5 9.5,15.5 12.5,15.5C 12.5674,16.9587 12.2341,18.2921 11.5,19.5C 7.5,19.5 3.5,19.5 -0.5,19.5C -0.5,12.8333 -0.5,6.16667 -0.5,-0.5 Z"/></g>
<g><path style="opacity:0.917" fill="#373d69" d="M 15.5,-0.5 C 16.5,-0.5 17.5,-0.5 18.5,-0.5C 19.2668,3.41549 19.7668,7.41549 20,11.5C 21.3795,16.2993 23.3795,16.6326 26,12.5C 26.2275,8.0829 26.7275,3.74957 27.5,-0.5C 28.5,-0.5 29.5,-0.5 30.5,-0.5C 30.6661,5.17645 30.4994,10.8431 30,16.5C 28.955,17.3734 28.1217,18.3734 27.5,19.5C 24.5,19.5 21.5,19.5 18.5,19.5C 17.8783,18.3734 17.045,17.3734 16,16.5C 15.5006,10.8431 15.3339,5.17645 15.5,-0.5 Z"/></g>
<g><path style="opacity:0.98" fill="#373e69" d="M 32.5,-0.5 C 33.8333,-0.5 35.1667,-0.5 36.5,-0.5C 36.5,6.16667 36.5,12.8333 36.5,19.5C 35.1667,19.5 33.8333,19.5 32.5,19.5C 32.5,12.8333 32.5,6.16667 32.5,-0.5 Z"/></g>
<g><path style="opacity:0.89" fill="#363d69" d="M 38.5,-0.5 C 42.1667,-0.5 45.8333,-0.5 49.5,-0.5C 51.5,0.833333 53.1667,2.5 54.5,4.5C 54.5,7.83333 54.5,11.1667 54.5,14.5C 53.1667,16.5 51.5,18.1667 49.5,19.5C 45.8333,19.5 42.1667,19.5 38.5,19.5C 38.5,12.8333 38.5,6.16667 38.5,-0.5 Z M 43.5,3.5 C 47.692,3.1766 49.692,5.1766 49.5,9.5C 49.692,13.8234 47.692,15.8234 43.5,15.5C 43.5,11.5 43.5,7.5 43.5,3.5 Z"/></g>
</svg>
