<svg width="44" height="16" viewBox="0 0 44 16" aria-label="EUID"><path d="M0 0h8.871l1.385 2.623H3.15v3.646h5.53l.788 1.322-.788 1.322H3.15v4.222h7.107l-1.15 2.644H0V0Z" fill="#fff"/><path d="M18.56 15.779c-.934 0-1.765-.133-2.494-.398a4.761 4.761 0 0 1-1.876-1.297c-.508-.586-.9-1.34-1.175-2.26-.261-.921-.392-2.023-.392-3.307V0l3.052 1.147V8.79c0 .81.061 1.493.185 2.051.138.544.33.984.577 1.319.248.334.55.579.907.732.358.14.763.21 1.217.21.454 0 .859-.07 1.216-.21a2.31 2.31 0 0 0 .949-.732c.26-.335.46-.775.598-1.319.137-.558.206-1.241.206-2.05V1.146L24.457 0v8.517c0 1.284-.13 2.386-.391 3.307-.261.92-.646 1.674-1.155 2.26a4.598 4.598 0 0 1-1.855 1.297c-.729.265-1.56.398-2.495.398ZM26.035 0l3.156.79v14.2l-3.156.789V0Zm4.734.79L32.884 0h2.389c1.257 0 2.38.156 3.372.47 1.005.312 1.856.795 2.55 1.45.71.639 1.25 1.449 1.62 2.43.385.98.577 2.14.577 3.476 0 1.322-.192 2.48-.577 3.475-.37.995-.902 1.827-1.597 2.495-.68.654-1.509 1.151-2.485 1.493-.976.327-2.07.49-3.283.49h-2.34l-2.341-.79V.79Zm4.304 12.452c.769 0 1.457-.1 2.063-.299a4.07 4.07 0 0 0 1.575-.96c.429-.44.754-1.002.976-1.684.237-.682.355-1.507.355-2.473 0-.967-.118-1.785-.355-2.453-.222-.682-.547-1.23-.976-1.641a3.68 3.68 0 0 0-1.575-.917c-.606-.2-1.294-.299-2.063-.299h-1.02v10.726h1.02Z" fill="#373E6A"/></svg>