<svg xmlns="http://www.w3.org/2000/svg" width="113" height="167" viewBox="0 0 113 167" fill="none"><path opacity=".5" d="M99.3 47.11s-.632-.452-1.31.406c-.636.806-17.186 25.378-22.023 35.285 0-1.856-.017-3.268-.054-3.907-.182-3.07-.182-10.294-.905-10.565-.724-.271-1.533 5.51-1.175 10.836.36 5.326-3.703 13.184-4.334 14.539-.53 1.14-.872 1.45-1.67 2.437.5-4.426 1.49-11.647 1.49-18.6 0-6.953.632-28.264 0-29.89-.633-1.626-1.084-1.625-1.084-.66 0 .964-2.077 15.379-2.077 19.803 0 4.047-1.21 14.211-4.318 22.412-.485-4.843-1.19-13.693-1.19-16.632 0-3.793-.632-10.747-1.355-10.565-.723.18-1.986 8.307-1.354 15.892.546 6.558-.595 9.135-1.672 13.156a4.427 4.427 0 0 0-.315-.785C54.51 87.473 48.46 59.48 48.45 57.494c-.008-1.987-.262-1.987-.803-1.535-.542.451 0 9.39 0 13.635 0 4.244 1.85 18.35 1.85 18.35-.873-3.22-1.866-6.8-2.21-7.718-.61-1.625-3.387-6.095-4.944-9.143-1.558-3.047-7.924-14.9-9.482-16.254-1.558-1.354-7.247-8.6-9.143-8.397-1.896.204 1.151 2.98 1.151 2.98 2.1 2.235 6.976 11.513 10.16 17.27 2.368 4.284 5.262 16.633 7.286 25.824-.956-1.445-1.791-3.112-2.532-6.071-1.444-5.78-6.403-11.694-7.667-12.326-1.264-.632 0 2.349 0 2.349 4.52 8.435 6.119 23.112 6.726 32.046-1.508-2.647-3.291-5.721-3.927-6.762-.992-1.625-2.075-4.426-2.437-5.6a12.107 12.107 0 0 0-2.075-3.792c-.905-1.083-1.718-3.611-2.078-4.424-.387-.87-.998-2.787-1.848-3.28-.303-.179-.455-.16-.52-.035-.127.252.092.937.157 1.387.265 1.817.545 3.635.764 5.458.154 1.268.501 2.777.273 4.056-.27 1.533 2.71 9.389 3.251 11.106.542 1.718 1.355 5.868 3.251 8.488 1.629 2.249 5.663 10.338 7.342 13.209h-7.424a2.519 2.519 0 0 0-2.519 2.516v5.568a.689.689 0 0 0 .691.687c.165 0 .324.059.447.168a.689.689 0 0 1 .233.418l2.251 14.585a12.737 12.737 0 0 0 3.7 7.173c.409.405.84.786 1.294 1.141.195.152 1.233.713 1.068 1.049-.896 1.831-10.29 2.302-12.219 2.513-5.598.61-11.192 1.244-16.783 1.902h39.027s11.598.363 16.288-5.518a14.715 14.715 0 0 0 4.201-8.071l2.48-14.783a.693.693 0 0 1 .68-.577h.053a.686.686 0 0 0 .69-.687v-5.568a2.52 2.52 0 0 0-2.518-2.516H68.59c1.731-.666 7.987-3.729 10.662-14.204 3.07-12.008 7.496-32.686 10.655-35.848 1.487-1.487 1.774-2.214 1.531-2.378.026-.012.051-.026.077-.037a.921.921 0 0 0-.163.006.812.812 0 0 0-.443.101c-.862.287-2.554 1.322-4.475 5.019-2.78 5.35-9.028 18.759-10.917 21.944.04-.663.077-1.422.112-2.253 1.635-3.752 3.88-9.377 5.608-14.454 2.8-8.217 13.522-26.774 14.47-30.092.948-3.318 2.597-6.841 3.138-7.653.542-.812.453-1.357.453-1.357Z" fill="#BDC9E2"/><path d="M24.776 107.613c-.174-.405-.433-32.415-8.564-47.592 0 0-1.518-3.578 0-2.819 1.518.759 7.47 7.86 9.204 14.798 1.735 6.939 3.913 7.968 6.732 12.63 2.819 4.661 3.252 34.04 3.144 34.474-.109.433-4.337.542-4.553 0-.217-.542-5.963-11.491-5.963-11.491Z" fill="#33624B"/><path d="M35.276 119.104c-.026.11-.331.201-.774.266l-8.238-32.896c-1.112-8.758-3.021-18.45-6.332-25.287 2.127 2.856 4.482 6.86 5.47 10.814 1.733 6.937 3.913 7.968 6.733 12.629 2.82 4.66 3.252 34.041 3.141 34.474Z" fill="#224031"/><path d="M37.078 73.813s-2.22-16.936-2.22-22.031c0-5.095-.65-15.828 0-16.37.65-.542.955-.542.965 1.843.01 2.385 7.274 35.992 9.009 39.352 1.734 3.361-.868 6.83 1.626 16.261 2.493 9.432 11.005 20.923 4.852 19.839-6.153-1.084-16.886-5.529-15.15-14.96 1.735-9.432.918-23.934.918-23.934Z" fill="#33624B"/><path d="M45.825 107.613c.2-.868-2.62-21.248-1.21-27.644 1.41-6.397 3.36-9.107 2.602-18.213-.76-9.107.758-18.863 1.626-19.08.867-.217 1.626 8.13 1.626 12.684 0 4.553 1.41 20.923 1.843 23.524.434 2.602-6.487 28.729-6.487 28.729Z" fill="#224031"/><path d="M45.825 107.613s.416-19.406 4.97-29.596c4.552-10.19 6.287-24.284 6.287-29.596 0-5.313 2.493-22.618 2.493-23.776 0-1.158.542-1.158 1.3.793.76 1.95 0 27.535 0 35.883 0 8.348-1.19 17.017-1.787 22.33-.597 5.314-9.92 36.619-12.522 35.819-2.602-.801-5.962-5.029-4.987-6.113.976-1.084 4.246-5.744 4.246-5.744Zm51.043-82.825s-.759-.542-1.572.488c-.814 1.03-23.254 34.36-27.373 44.417l.653 11.36 8.02-16.045 20.272-40.22Z" fill="#33624B"/><path d="M35.293 123.657a31.475 31.475 0 0 1-2.901-.663c-2.644-.742-3.996 1.284-4.78.422-1.083-1.193-7.28-13.851-9.556-16.996-2.277-3.145-3.252-8.13-3.903-10.188-.65-2.058-4.228-11.494-3.903-13.335.274-1.535-.143-3.347-.328-4.868-.264-2.19-.598-4.372-.917-6.554-.078-.54-.342-1.362-.189-1.665.078-.15.26-.172.624.043 1.018.591 1.754 2.894 2.219 3.938.432.976 1.41 4.01 2.494 5.31a14.532 14.532 0 0 1 2.491 4.554c.436 1.41 1.737 4.771 2.927 6.724 1.19 1.952 5.747 9.864 7.155 12.466.879 1.619 3.978 9.275 6.196 14.833.081.198.156.393.235.585a1698.31 1698.31 0 0 1 2.136 5.394Z" fill="#448465"/><path d="m46.419 116.704-7.198 6.953-1.587-.11-1.697-.121-2.609-.182s-.774-25.28-2.806-34.467c-2.033-9.188-6.993-33.58-10.814-40.49-3.821-6.91-9.676-18.05-12.196-20.733 0 0-3.659-3.334-1.382-3.578 2.276-.244 9.106 8.456 10.976 10.083 1.87 1.626 9.513 15.855 11.383 19.513 1.87 3.658 5.204 9.025 5.935 10.977.732 1.95 3.903 13.903 4.391 15.773.488 1.87.65 4.228 1.789 5.61 1.138 1.382.731 2.602.487 3.984-.244 1.383 1.383 3.415 1.708 4.066.325.65 0 1.544 0 3.496 0 1.95 2.358 3.415 1.952 5.122-.407 1.707.08 2.764.813 3.984.731 1.22-.326 2.195 0 4.065.12.696.27 1.708.41 2.706.05.364.102.729.147 1.073.168 1.255.298 2.276.298 2.276ZM68.748 78.45s1.56-2.276 1.776-3.902c.217-1.626.543-1.301 1.952-3.036 1.41-1.734 1.41-2.71 1.41-3.469 0-.759.108-.867.975-1.843.867-.975 1.192-2.493 1.3-3.252.11-.759 0 .759.977-1.084.975-1.843.975-4.12 1.95-4.662.977-.542 1.844-1.192 1.952-1.951.108-.759-.759-1.734 0-2.385.76-.65 1.41-.434 1.735-1.192.34-.951.595-1.93.759-2.927.108-.651 1.084-2.06 1.409-2.277.325-.217.65-1.301.759-1.951.108-.65 1.8-.326 1.822-1.41.02-1.084-.346-1.843 0-2.385.346-.542.996-.542 1.321-1.3.325-.76-.434-1.41 0-2.169.434-.759 1.3-.759 1.518-1.518.217-.759.325-1.517.975-2.385.65-.867-.217 1.085 1.301-1.409 1.518-2.493 2.927-6.613 4.228-7.155 0 0 .109.65-.542 1.626-.65.976-2.629 5.204-3.767 9.188-1.138 3.984-14.012 26.262-17.372 36.127-3.36 9.865-8.348 21.465-9.215 22.44l2.776-15.72Z" fill="#448465"/><path d="M87.524 59.288s-2.764-.27-6.1 6.154c-3.338 6.423-10.84 22.52-13.105 26.342-2.267 3.823-4.95 23.173-8.527 25.937-3.578 2.765-.163 3.171 2.764.732 2.927-2.439 8.798-17.969 10.336-22.684 1.006-3.09 4.862-16.406 8.773-26.14 2.056-5.123 3.843-9.492 5.859-10.341Z" fill="#33624B"/><path d="M85.592 62.19c-3.792 3.795-9.106 28.62-12.79 43.037-3.686 14.417-13.023 17.142-13.335 17.236-.657.202-6.072 1.194-6.072 1.194h-.062l.675-.264a.106.106 0 0 1 .03-.013c9.27-4.297 16.266-22.922 17.03-24.44.763-1.52 0-1.41 0-2.265 0-.854 1.082-.663 1.625-1.746.543-1.083.433-2.602.326-4.052-.108-1.45.54-1.151 1.083-1.912.543-.76.975-3.792.868-4.986-.108-1.193.215-1.626 1.301-2.276 1.086-.651 1.083-2.277 1.083-4.01 0-1.734.543-1.952 1.626-2.927 1.083-.976 4.66-11.708 6.18-13.878 1.518-2.169 4.228-2.494.432 1.301Z" fill="#448465"/><path d="M68.03 94.82c-.64 3.092-1.278 22.754-13.991 28.561a16.882 16.882 0 0 1-.644.277H39.221l.007-.007a204.55 204.55 0 0 0 4.566-5.974 165.404 165.404 0 0 0 2.326-3.249c1.616-2.335 3.102-4.664 3.909-6.381 2.39-5.096 1.85-5.96 2.065-7.047.215-1.086.868-.432 1.626-1.84.758-1.409.543-3.689.543-4.664 0-.976 1.626-2.492 2.059-3.253.433-.76.76-4.985 2.17-6.83.22-.289.419-.54.598-.76v-.004c.956-1.18 1.365-1.55 2.003-2.92.758-1.626 5.637-11.058 5.204-17.455-.434-6.397.543-13.334 1.409-13.009.867.325.868 8.999 1.086 12.684.218 3.685-.112 28.728-.762 31.87Z" fill="#448465"/><path opacity=".8" d="M46.12 114.427s-3.744 5.691-8.486 9.119l-1.697-.12c3.46-2.446 8.189-6.28 10.036-10.072.05.364.101.728.147 1.073Zm-12.04 8.989c-.55-.12-1.12-.264-1.688-.423-.04-1.746.53-5.317.53-5.317.081.198.156.393.235.585.116.647.627 3.532.923 5.155Z" fill="#33624B"/><path d="M63.806 112.779a44.8 44.8 0 0 1-3.993 5.085c-2.603 2.81-5.776 5.443-6.418 5.793 0 0 7.818-4.613 12.208-13.286l-1.797 2.408Z" fill="#33624B"/><path opacity=".6" d="M87.373 41.365c.01.462.163 1.031.15 1.743-.023 1.087-1.714.761-1.825 1.412-.11.65-.432 1.732-.757 1.951-.326.22-1.301 1.626-1.41 2.276-.166.997-.42 1.977-.76 2.928-.326.757-.977.54-1.733 1.19-.757.65.107 1.626 0 2.387-.108.761-.976 1.41-1.951 1.951-.976.542-.976 2.817-1.952 4.661-.976 1.844-.868.325-.976 1.083-.107.758-.432 2.277-1.3 3.252-.868.976-.976 1.087-.976 1.844 0 .758 0 1.732-1.41 3.47-1.409 1.738-1.736 1.41-1.95 3.035-.215 1.625-1.78 3.903-1.78 3.903l-.461 2.614c.003-1.97.536-7.09.572-7.252.027-.117 10.408-18.268 18.52-32.448Z" fill="#224031"/><path d="M72.593 125.299v6.684a.826.826 0 0 1-.83.826H71.7a.826.826 0 0 0-.817.692l-2.976 17.748a17.708 17.708 0 0 1-16.57 14.759c-.299.019-.598.026-.9.026H41.5a17.717 17.717 0 0 1-17.507-15.013l-2.7-17.51a.827.827 0 0 0-.28-.501.809.809 0 0 0-.537-.201.83.83 0 0 1-.83-.826v-6.684a3.023 3.023 0 0 1 3.025-3.021h46.897a3.022 3.022 0 0 1 3.024 3.021Z" fill="#F4D892"/><path d="M71.699 132.809a.825.825 0 0 0-.817.692l-2.976 17.748a17.71 17.71 0 0 1-16.57 14.759c9.705-8.68 9.214-21.865 7.724-27.173-1.492-5.314-12.641-6.026-12.641-6.026h25.28Z" fill="#EFC764"/></svg>